<svg xmlns="http://www.w3.org/2000/svg" width="920" height="340" viewBox="0 0 920 340">
<rect width="100%" height="100%" fill="white"/>
<text x="58" y="20" font-family="sans-serif" font-size="14">E5 mean PIS_LPIPS by call</text>
<line x1="58" y1="296" x2="896" y2="296" stroke="#333"/>
<line x1="58" y1="28" x2="58" y2="296" stroke="#333"/>
<text x="460.0" y="332" text-anchor="middle" font-family="sans-serif" font-size="12">call index</text>
<text x="14" y="170.0" transform="rotate(-90 14 170.0)" text-anchor="middle" font-family="sans-serif" font-size="12">mean LPIPS</text>
<polyline points="58.00,28.00 75.46,199.21 92.92,270.89 110.38,290.59 127.83,295.64 145.29,293.54 162.75,291.81 180.21,294.44 197.67,295.72 215.12,295.94 232.58,295.98 250.04,295.98 267.50,295.98 284.96,295.97 302.42,295.97 319.88,295.98 337.33,295.98 354.79,295.99 372.25,295.99 389.71,296.00 407.17,296.00 424.62,296.00 442.08,295.99 459.54,296.00 477.00,296.00 494.46,296.00 511.92,296.00 529.38,296.00 546.83,296.00 564.29,296.00 581.75,296.00 599.21,296.00 616.67,296.00 634.12,296.00 651.58,296.00 669.04,296.00 686.50,296.00 703.96,296.00 721.42,296.00 738.88,296.00 756.33,296.00 773.79,296.00 791.25,295.99 808.71,295.99 826.17,295.98 843.62,295.96 861.08,295.92 878.54,295.62 896.00,288.14" fill="none" stroke="#1f77b4" stroke-width="2"/>
</svg>