<svg xmlns="http://www.w3.org/2000/svg" width="960" height="520" viewBox="0 0 960 520">
<rect width="100%" height="100%" fill="white"/>
<text x="480.0" y="24" text-anchor="middle" font-family="Arial" font-size="18" font-weight="700">E3 average metric score curves</text>
<line x1="78" y1="450" x2="740" y2="450" stroke="#111827" stroke-width="1"/>
<line x1="78" y1="46" x2="78" y2="450" stroke="#111827" stroke-width="1"/>
<line x1="78" y1="450.0" x2="740" y2="450.0" stroke="#e5e7eb"/>
<text x="70" y="454.0" text-anchor="end" font-family="Arial" font-size="11" fill="#374151">0</text>
<line x1="78" y1="369.2" x2="740" y2="369.2" stroke="#e5e7eb"/>
<text x="70" y="373.2" text-anchor="end" font-family="Arial" font-size="11" fill="#374151">49.8</text>
<line x1="78" y1="288.4" x2="740" y2="288.4" stroke="#e5e7eb"/>
<text x="70" y="292.4" text-anchor="end" font-family="Arial" font-size="11" fill="#374151">99.7</text>
<line x1="78" y1="207.6" x2="740" y2="207.6" stroke="#e5e7eb"/>
<text x="70" y="211.6" text-anchor="end" font-family="Arial" font-size="11" fill="#374151">149</text>
<line x1="78" y1="126.8" x2="740" y2="126.8" stroke="#e5e7eb"/>
<text x="70" y="130.8" text-anchor="end" font-family="Arial" font-size="11" fill="#374151">199</text>
<line x1="78" y1="46.0" x2="740" y2="46.0" stroke="#e5e7eb"/>
<text x="70" y="50.0" text-anchor="end" font-family="Arial" font-size="11" fill="#374151">249</text>
<line x1="78.0" y1="450" x2="78.0" y2="455" stroke="#111827"/>
<text x="78.0" y="472" text-anchor="middle" font-family="Arial" font-size="11" fill="#374151">0</text>
<line x1="210.4" y1="450" x2="210.4" y2="455" stroke="#111827"/>
<text x="210.4" y="472" text-anchor="middle" font-family="Arial" font-size="11" fill="#374151">19.4</text>
<line x1="342.8" y1="450" x2="342.8" y2="455" stroke="#111827"/>
<text x="342.8" y="472" text-anchor="middle" font-family="Arial" font-size="11" fill="#374151">38.8</text>
<line x1="475.2" y1="450" x2="475.2" y2="455" stroke="#111827"/>
<text x="475.2" y="472" text-anchor="middle" font-family="Arial" font-size="11" fill="#374151">58.2</text>
<line x1="607.6" y1="450" x2="607.6" y2="455" stroke="#111827"/>
<text x="607.6" y="472" text-anchor="middle" font-family="Arial" font-size="11" fill="#374151">77.6</text>
<line x1="740.0" y1="450" x2="740.0" y2="455" stroke="#111827"/>
<text x="740.0" y="472" text-anchor="middle" font-family="Arial" font-size="11" fill="#374151">97</text>
<polyline fill="none" stroke="#2563eb" stroke-width="1.8" points="78.0,446.3 84.8,449.9 91.6,446.2 98.5,449.9 105.3,446.1 112.1,449.9 118.9,446.1 125.8,449.9 132.6,446.1 139.4,450.0 146.2,446.2 153.1,450.0 159.9,446.2 166.7,450.0 173.5,446.3 180.4,450.0 187.2,446.4 194.0,450.0 200.8,446.5 207.7,450.0 214.5,446.5 221.3,450.0 228.1,446.6 235.0,450.0 241.8,446.7 248.6,450.0 255.4,446.8 262.3,450.0 269.1,446.8 275.9,450.0 282.7,446.9 289.6,450.0 296.4,446.9 303.2,450.0 310.0,447.0 316.9,450.0 323.7,447.0 330.5,450.0 337.3,447.1 344.2,450.0 351.0,447.1 357.8,450.0 364.6,447.1 371.5,450.0 378.3,447.0 385.1,450.0 391.9,447.0 398.8,450.0 405.6,447.0 412.4,450.0 419.2,446.9 426.1,450.0 432.9,446.9 439.7,450.0 446.5,446.8 453.4,450.0 460.2,446.7 467.0,450.0 473.8,446.6 480.7,450.0 487.5,446.5 494.3,450.0 501.1,446.4 508.0,450.0 514.8,446.3 521.6,450.0 528.4,446.1 535.3,450.0 542.1,446.0 548.9,450.0 555.7,445.9 562.6,450.0 569.4,445.7 576.2,450.0 583.0,445.6 589.9,450.0 596.7,445.4 603.5,450.0 610.3,445.3 617.2,450.0 624.0,445.1 630.8,450.0 637.6,445.0 644.5,450.0 651.3,444.9 658.1,450.0 664.9,444.8 671.8,450.0 678.6,444.7 685.4,449.9 692.2,444.6 699.1,449.9 705.9,444.6 712.7,449.9 719.5,444.5 726.4,449.9 733.2,444.5 740.0,449.6"/>
<rect x="768" y="56" width="12" height="12" fill="#2563eb"/>
<text x="786" y="66" font-family="Arial" font-size="12" fill="#111827">raw_oracle</text>
<polyline fill="none" stroke="#dc2626" stroke-width="1.8" points="78.0,46.0 84.8,449.8 91.6,418.2 98.5,449.9 105.3,420.5 112.1,449.9 118.9,424.7 125.8,449.9 132.6,428.7 139.4,450.0 146.2,432.0 153.1,450.0 159.9,434.6 166.7,450.0 173.5,436.7 180.4,450.0 187.2,438.2 194.0,450.0 200.8,439.5 207.7,450.0 214.5,440.5 221.3,450.0 228.1,441.3 235.0,450.0 241.8,442.0 248.6,450.0 255.4,442.7 262.3,450.0 269.1,443.2 275.9,450.0 282.7,443.7 289.6,450.0 296.4,444.1 303.2,450.0 310.0,444.5 316.9,450.0 323.7,444.9 330.5,450.0 337.3,445.2 344.2,450.0 351.0,445.4 357.8,450.0 364.6,445.7 371.5,450.0 378.3,445.9 385.1,450.0 391.9,446.1 398.8,450.0 405.6,446.2 412.4,450.0 419.2,446.4 426.1,450.0 432.9,446.5 439.7,450.0 446.5,446.6 453.4,450.0 460.2,446.6 467.0,450.0 473.8,446.6 480.7,450.0 487.5,446.6 494.3,450.0 501.1,446.6 508.0,450.0 514.8,446.6 521.6,450.0 528.4,446.6 535.3,450.0 542.1,446.5 548.9,450.0 555.7,446.4 562.6,450.0 569.4,446.3 576.2,450.0 583.0,446.2 589.9,450.0 596.7,446.1 603.5,450.0 610.3,446.0 617.2,450.0 624.0,445.9 630.8,450.0 637.6,445.8 644.5,450.0 651.3,445.7 658.1,450.0 664.9,445.6 671.8,450.0 678.6,445.5 685.4,449.9 692.2,445.4 699.1,449.9 705.9,445.4 712.7,449.9 719.5,445.3 726.4,449.9 733.2,445.2 740.0,449.7"/>
<rect x="768" y="76" width="12" height="12" fill="#dc2626"/>
<text x="786" y="86" font-family="Arial" font-size="12" fill="#111827">sea_oracle</text>
<polyline fill="none" stroke="#16a34a" stroke-width="1.8" points="78.0,125.2 84.8,422.6 91.6,186.1 98.5,430.5 105.3,232.4 112.1,440.7 118.9,275.6 125.8,443.9 132.6,309.5 139.4,444.7 146.2,325.3 153.1,446.8 159.9,349.0 166.7,447.9 173.5,363.2 180.4,447.7 187.2,374.3 194.0,448.0 200.8,389.4 207.7,449.1 214.5,401.7 221.3,449.2 228.1,412.0 235.0,449.4 241.8,420.9 248.6,449.7 255.4,425.1 262.3,449.6 269.1,427.2 275.9,449.7 282.7,428.1 289.6,449.7 296.4,431.6 303.2,449.9 310.0,432.4 316.9,449.8 323.7,433.4 330.5,449.9 337.3,436.6 344.2,449.9 351.0,436.6 357.8,449.8 364.6,437.8 371.5,449.9 378.3,244.5 385.1,449.9 391.9,431.2 398.8,449.9 405.6,442.1 412.4,449.9 419.2,443.1 426.1,449.8 432.9,442.5 439.7,449.8 446.5,444.2 453.4,450.0 460.2,444.9 467.0,450.0 473.8,445.1 480.7,450.0 487.5,445.5 494.3,450.0 501.1,445.9 508.0,450.0 514.8,446.1 521.6,450.0 528.4,446.3 535.3,450.0 542.1,445.8 548.9,449.9 555.7,445.8 562.6,450.0 569.4,445.7 576.2,450.0 583.0,445.8 589.9,450.0 596.7,446.0 603.5,450.0 610.3,446.1 617.2,450.0 624.0,446.1 630.8,450.0 637.6,445.8 644.5,450.0 651.3,445.5 658.1,449.9 664.9,444.9 671.8,449.9 678.6,444.4 685.4,449.9 692.2,443.8 699.1,449.8 705.9,443.3 712.7,449.8 719.5,442.5 726.4,449.6 733.2,440.6 740.0,448.4"/>
<rect x="768" y="96" width="12" height="12" fill="#16a34a"/>
<text x="786" y="106" font-family="Arial" font-size="12" fill="#111827">dino_oracle</text>
<polyline fill="none" stroke="#9333ea" stroke-width="1.8" points="78.0,130.1 84.8,433.9 91.6,171.5 98.5,438.4 105.3,221.0 112.1,444.0 118.9,270.2 125.8,446.2 132.6,311.3 139.4,447.7 146.2,345.3 153.1,448.6 159.9,367.6 166.7,448.8 173.5,379.4 180.4,448.8 187.2,392.5 194.0,449.0 200.8,406.2 207.7,449.6 214.5,415.7 221.3,449.6 228.1,422.6 235.0,449.7 241.8,426.7 248.6,449.6 255.4,430.1 262.3,449.8 269.1,433.2 275.9,449.8 282.7,435.3 289.6,449.9 296.4,436.8 303.2,449.9 310.0,438.9 316.9,449.9 323.7,440.5 330.5,449.9 337.3,441.6 344.2,449.9 351.0,442.5 357.8,450.0 364.6,443.2 371.5,450.0 378.3,336.8 385.1,449.9 391.9,436.3 398.8,449.9 405.6,444.9 412.4,450.0 419.2,445.3 426.1,450.0 432.9,445.6 439.7,450.0 446.5,445.9 453.4,450.0 460.2,446.1 467.0,450.0 473.8,446.3 480.7,450.0 487.5,446.5 494.3,450.0 501.1,446.6 508.0,450.0 514.8,446.7 521.6,450.0 528.4,446.8 535.3,450.0 542.1,446.8 548.9,450.0 555.7,446.9 562.6,450.0 569.4,446.9 576.2,450.0 583.0,446.9 589.9,450.0 596.7,446.9 603.5,450.0 610.3,446.8 617.2,450.0 624.0,446.8 630.8,450.0 637.6,446.8 644.5,450.0 651.3,446.7 658.1,450.0 664.9,446.7 671.8,449.9 678.6,446.7 685.4,449.9 692.2,446.9 699.1,449.9 705.9,447.3 712.7,449.9 719.5,447.9 726.4,449.8 733.2,448.4 740.0,449.6"/>
<rect x="768" y="116" width="12" height="12" fill="#9333ea"/>
<text x="786" y="126" font-family="Arial" font-size="12" fill="#111827">lpips_oracle</text>
<polyline fill="none" stroke="#ea580c" stroke-width="1.8" points="78.0,46.0 84.8,449.8 91.6,418.2 98.5,449.9 105.3,420.5 112.1,449.9 118.9,424.7 125.8,449.9 132.6,428.7 139.4,450.0 146.2,432.0 153.1,450.0 159.9,434.6 166.7,450.0 173.5,436.7 180.4,450.0 187.2,438.2 194.0,450.0 200.8,439.5 207.7,450.0 214.5,440.5 221.3,450.0 228.1,441.3 235.0,450.0 241.8,442.0 248.6,450.0 255.4,442.7 262.3,450.0 269.1,443.2 275.9,449.9 282.7,435.9 289.6,449.9 296.4,437.9 303.2,449.9 310.0,438.4 316.9,449.9 323.7,439.1 330.5,449.9 337.3,440.9 344.2,450.0 351.0,441.0 357.8,449.9 364.6,441.7 371.5,449.9 378.3,345.2 385.1,449.9 391.9,438.7 398.8,449.9 405.6,444.2 412.4,450.0 419.2,444.7 426.1,449.9 432.9,444.5 439.7,449.9 446.5,445.4 453.4,450.0 460.2,445.7 467.0,450.0 473.8,445.8 480.7,450.0 487.5,446.1 494.3,450.0 501.1,446.3 508.0,450.0 514.8,446.4 521.6,450.0 528.4,446.4 535.3,450.0 542.1,446.2 548.9,450.0 555.7,446.4 562.6,450.0 569.4,446.3 576.2,450.0 583.0,446.3 589.9,450.0 596.7,446.4 603.5,450.0 610.3,446.4 617.2,450.0 624.0,446.3 630.8,450.0 637.6,446.2 644.5,450.0 651.3,446.0 658.1,450.0 664.9,445.8 671.8,449.9 678.6,445.6 685.4,449.9 692.2,445.4 699.1,449.9 705.9,445.4 712.7,449.8 719.5,445.4 726.4,449.7 733.2,444.9 740.0,449.2"/>
<rect x="768" y="136" width="12" height="12" fill="#ea580c"/>
<text x="786" y="146" font-family="Arial" font-size="12" fill="#111827">pma_stageaware_oracle</text>
<text x="409.0" y="498" text-anchor="middle" font-family="Arial" font-size="13">distance index</text>
<text transform="translate(20 248.0) rotate(-90)" text-anchor="middle" font-family="Arial" font-size="13">mean normalized score</text>
</svg>