<svg xmlns="http://www.w3.org/2000/svg" width="960" height="520" viewBox="0 0 960 520">
<rect width="100%" height="100%" fill="white"/>
<text x="480.0" y="24" text-anchor="middle" font-family="Arial" font-size="18" font-weight="700">E3 threshold vs achieved RR</text>
<line x1="78" y1="450" x2="740" y2="450" stroke="#111827" stroke-width="1"/>
<line x1="78" y1="46" x2="78" y2="450" stroke="#111827" stroke-width="1"/>
<line x1="78" y1="450.0" x2="740" y2="450.0" stroke="#e5e7eb"/>
<text x="70" y="454.0" text-anchor="end" font-family="Arial" font-size="11" fill="#374151">0</text>
<line x1="78" y1="369.2" x2="740" y2="369.2" stroke="#e5e7eb"/>
<text x="70" y="373.2" text-anchor="end" font-family="Arial" font-size="11" fill="#374151">0.2</text>
<line x1="78" y1="288.4" x2="740" y2="288.4" stroke="#e5e7eb"/>
<text x="70" y="292.4" text-anchor="end" font-family="Arial" font-size="11" fill="#374151">0.4</text>
<line x1="78" y1="207.6" x2="740" y2="207.6" stroke="#e5e7eb"/>
<text x="70" y="211.6" text-anchor="end" font-family="Arial" font-size="11" fill="#374151">0.6</text>
<line x1="78" y1="126.8" x2="740" y2="126.8" stroke="#e5e7eb"/>
<text x="70" y="130.8" text-anchor="end" font-family="Arial" font-size="11" fill="#374151">0.8</text>
<line x1="78" y1="46.0" x2="740" y2="46.0" stroke="#e5e7eb"/>
<text x="70" y="50.0" text-anchor="end" font-family="Arial" font-size="11" fill="#374151">1</text>
<line x1="78.0" y1="450" x2="78.0" y2="455" stroke="#111827"/>
<text x="78.0" y="472" text-anchor="middle" font-family="Arial" font-size="11" fill="#374151">1e-12</text>
<line x1="210.4" y1="450" x2="210.4" y2="455" stroke="#111827"/>
<text x="210.4" y="472" text-anchor="middle" font-family="Arial" font-size="11" fill="#374151">1.27e-09</text>
<line x1="342.8" y1="450" x2="342.8" y2="455" stroke="#111827"/>
<text x="342.8" y="472" text-anchor="middle" font-family="Arial" font-size="11" fill="#374151">1.6e-06</text>
<line x1="475.2" y1="450" x2="475.2" y2="455" stroke="#111827"/>
<text x="475.2" y="472" text-anchor="middle" font-family="Arial" font-size="11" fill="#374151">0.00203</text>
<line x1="607.6" y1="450" x2="607.6" y2="455" stroke="#111827"/>
<text x="607.6" y="472" text-anchor="middle" font-family="Arial" font-size="11" fill="#374151">2.57</text>
<line x1="740.0" y1="450" x2="740.0" y2="455" stroke="#111827"/>
<text x="740.0" y="472" text-anchor="middle" font-family="Arial" font-size="11" fill="#374151">3.26e+03</text>
<polyline fill="none" stroke="#2563eb" stroke-width="1.8" points="78.0,46.0 448.3,46.0 451.3,46.0 454.2,46.0 457.2,46.0 460.2,46.0 463.1,46.0 466.1,46.0 469.1,46.0 472.0,46.0 475.0,46.0 478.0,46.8 480.9,48.1 483.9,49.5 486.8,51.5 489.8,54.4 492.8,57.2 495.7,61.1 498.7,70.0 501.7,83.0 504.6,100.5 507.6,120.9 510.6,141.1 513.5,159.9 516.5,175.9 519.5,187.9 522.4,197.6 525.4,206.4 528.4,213.8 531.3,219.4 534.3,223.6 537.3,226.6 540.2,228.6 543.2,230.4 546.1,231.9 549.1,232.9 552.1,233.5 555.0,233.7 558.0,233.7 561.0,233.7 563.9,233.7 566.9,233.7 569.9,233.7 572.8,233.7 575.8,233.7 578.8,233.7 581.7,233.7 584.7,233.7 587.7,233.7 590.6,233.7 593.6,233.7 596.5,233.7 599.5,233.7 601.3,248.0 602.5,258.9 605.4,285.7 605.7,288.4 608.4,305.9 611.4,316.5 613.2,328.8 614.3,336.4 617.3,345.2 620.3,353.8 623.2,361.9 626.2,372.2 629.2,378.8 632.1,384.7 635.1,391.3 638.1,395.7 641.0,400.5 644.0,404.5 647.0,407.9 649.9,409.4 652.9,413.2 655.8,413.7 658.8,417.4 661.8,417.4 664.7,420.0 667.7,421.4 670.7,421.4 673.6,421.4 676.6,421.9 679.6,425.5"/>
<rect x="768" y="56" width="12" height="12" fill="#2563eb"/>
<text x="786" y="66" font-family="Arial" font-size="12" fill="#111827">raw_oracle</text>
<polyline fill="none" stroke="#dc2626" stroke-width="1.8" points="78.0,46.0 444.8,46.0 448.0,46.0 451.1,46.0 454.2,46.0 457.4,46.0 460.5,46.0 463.6,46.0 466.8,46.0 469.9,46.0 473.0,46.6 476.2,47.7 479.3,48.4 482.4,51.0 485.6,53.7 488.7,56.6 491.9,60.9 495.0,70.8 498.1,85.2 501.3,101.9 504.4,123.7 507.5,144.8 510.7,161.0 513.8,176.2 516.9,187.2 520.1,197.3 523.2,206.2 526.3,213.4 529.5,219.2 532.6,223.5 535.7,226.5 538.9,228.7 542.0,230.7 545.1,232.1 548.3,233.3 551.4,233.7 554.6,233.7 557.7,233.7 560.8,233.7 564.0,233.7 567.1,233.7 570.2,233.7 573.4,233.7 576.5,233.7 579.6,233.7 582.8,233.7 585.9,233.7 589.0,233.7 592.2,233.7 595.3,233.7 598.4,233.7 601.6,235.4 604.3,248.0 604.7,251.0 607.8,274.0 609.8,288.4 611.0,294.5 614.1,301.9 617.3,311.0 620.4,323.2 621.9,328.8 623.5,336.4 626.7,344.0 629.8,353.9 632.9,363.2 636.1,371.3 639.2,378.1 642.3,385.7 645.5,392.5 648.6,396.7 651.7,401.0 654.9,403.3 658.0,409.1 661.1,409.2 664.3,413.3 667.4,414.2 670.5,417.4 673.7,417.4 676.8,421.4 679.9,421.4 683.1,421.4 686.2,421.4 689.4,425.5"/>
<rect x="768" y="76" width="12" height="12" fill="#dc2626"/>
<text x="786" y="86" font-family="Arial" font-size="12" fill="#111827">sea_oracle</text>
<polyline fill="none" stroke="#16a34a" stroke-width="1.8" points="78.0,46.3 414.5,46.3 418.6,46.3 422.8,46.3 427.0,46.3 431.2,46.3 435.3,46.3 439.5,46.3 443.7,46.8 447.9,46.8 452.0,46.8 456.2,48.2 460.4,48.2 464.5,49.3 468.7,51.2 472.9,52.2 477.1,55.7 481.2,59.2 485.4,63.3 489.6,70.9 493.8,78.2 497.9,85.6 502.1,95.7 506.3,105.7 510.5,117.3 514.6,127.4 518.8,136.5 523.0,145.8 527.2,155.2 531.3,163.8 535.5,171.2 539.7,178.4 543.8,184.4 548.0,189.1 552.2,194.2 556.4,198.4 560.5,202.9 564.7,206.2 568.9,210.7 573.1,213.9 577.2,218.0 581.4,221.9 585.6,226.6 589.8,232.8 593.9,241.1 597.0,248.0 598.1,250.0 602.3,259.1 606.4,270.4 610.6,281.2 613.7,288.4 614.8,290.9 619.0,301.9 623.1,312.7 627.3,323.7 629.5,328.8 631.5,333.7 635.7,341.9 639.8,350.8 644.0,357.9 648.2,365.9 652.4,372.1 656.5,379.3 660.7,384.8 664.9,390.3 669.1,395.2 673.2,399.5 677.4,403.3 681.6,406.8 685.7,410.1 689.9,412.6 694.1,415.7 698.3,417.5 702.4,419.1 706.6,420.9 710.8,422.4 715.0,423.5 719.1,424.0 723.3,424.5 727.5,425.3 731.7,425.5 735.8,425.5 740.0,425.5"/>
<rect x="768" y="96" width="12" height="12" fill="#16a34a"/>
<text x="786" y="106" font-family="Arial" font-size="12" fill="#111827">dino_oracle</text>
<polyline fill="none" stroke="#9333ea" stroke-width="1.8" points="78.0,46.0 413.8,46.0 417.8,46.0 421.7,46.0 425.7,46.0 429.7,46.0 433.7,46.0 437.7,46.0 441.7,46.0 445.7,46.0 449.7,46.0 453.6,46.0 457.6,46.3 461.6,46.8 465.6,47.7 469.6,48.4 473.6,49.1 477.6,51.0 481.6,53.4 485.5,55.8 489.5,58.1 493.5,61.8 497.5,66.1 501.5,73.2 505.5,83.3 509.5,96.1 513.5,110.3 517.4,127.1 521.4,137.9 525.4,147.6 529.4,157.6 533.4,165.7 537.4,172.1 541.4,180.2 545.4,186.2 549.3,191.8 553.3,196.9 557.3,201.9 561.3,206.5 565.3,210.4 569.3,213.9 573.3,217.5 577.3,220.1 581.2,223.5 585.2,227.5 589.2,232.7 593.2,238.8 597.2,247.1 597.7,248.0 601.2,255.1 605.2,265.9 609.1,278.7 612.3,288.4 613.1,290.3 617.1,300.8 621.1,311.4 625.1,320.7 628.6,328.8 629.1,329.9 633.1,338.3 637.1,345.9 641.0,353.6 645.0,361.1 649.0,367.7 653.0,374.2 657.0,379.7 661.0,385.2 665.0,390.3 669.0,395.6 672.9,400.1 676.9,404.0 680.9,407.6 684.9,410.6 688.9,413.2 692.9,415.8 696.9,418.0 700.9,419.2 704.8,421.3 708.8,422.1 712.8,422.8 716.8,424.5 720.8,425.5 724.8,425.5"/>
<rect x="768" y="116" width="12" height="12" fill="#9333ea"/>
<text x="786" y="126" font-family="Arial" font-size="12" fill="#111827">lpips_oracle</text>
<polyline fill="none" stroke="#ea580c" stroke-width="1.8" points="78.0,46.0 434.2,46.0 437.9,46.0 441.6,46.0 445.3,46.0 449.0,46.0 452.7,46.0 456.4,46.0 460.1,46.0 463.8,46.0 467.5,46.1 471.2,46.8 474.9,47.8 478.6,49.4 482.3,51.7 486.0,53.5 489.7,56.2 493.4,60.0 497.1,64.7 500.8,72.8 504.5,82.7 508.2,96.9 511.9,114.9 515.6,128.8 519.3,140.9 523.0,151.2 526.7,160.6 530.5,168.4 534.2,176.0 537.9,181.9 541.6,187.7 545.3,193.8 549.0,198.7 552.7,202.6 556.4,206.1 560.1,210.1 563.8,213.4 567.5,215.5 571.2,218.4 574.9,220.4 578.6,222.2 582.3,224.2 586.0,225.3 589.7,226.9 593.4,228.7 597.1,232.8 600.8,241.0 602.7,248.0 604.5,255.8 608.2,270.3 611.9,282.2 614.2,288.4 615.6,291.8 619.3,303.8 623.0,315.0 626.7,324.3 628.4,328.8 630.4,333.7 634.1,343.1 637.8,350.8 641.5,358.8 645.2,365.6 648.9,372.2 652.6,378.2 656.3,384.3 660.0,388.5 663.7,393.9 667.4,398.8 671.1,403.3 674.8,406.6 678.5,409.8 682.2,412.4 685.9,415.3 689.6,416.7 693.3,419.1 697.0,420.2 700.7,421.4 704.4,422.3 708.1,423.7 711.8,424.4 715.5,425.5 719.3,425.5 723.0,425.5"/>
<rect x="768" y="136" width="12" height="12" fill="#ea580c"/>
<text x="786" y="146" font-family="Arial" font-size="12" fill="#111827">pma_nogate_oracle</text>
<polyline fill="none" stroke="#0891b2" stroke-width="1.8" points="78.0,46.0 429.0,46.0 432.7,46.0 436.3,46.0 440.0,46.0 443.6,46.0 447.3,46.0 451.0,46.0 454.6,46.0 458.3,46.0 461.9,46.0 465.6,46.0 469.2,46.6 472.9,47.4 476.5,48.9 480.2,51.0 483.8,53.1 487.5,56.1 491.2,60.5 494.8,68.5 498.5,79.7 502.1,95.0 505.8,112.6 509.4,134.5 513.1,154.2 516.7,168.0 520.4,181.7 524.0,192.1 527.7,201.6 531.4,208.7 535.0,214.8 538.7,218.5 542.3,221.9 546.0,224.7 549.6,227.3 553.3,229.0 556.9,230.5 560.6,231.1 564.2,231.9 567.9,232.6 571.5,232.8 575.2,233.1 578.9,233.1 582.5,233.2 586.2,233.4 589.8,233.8 593.5,234.8 597.1,239.1 599.9,248.0 600.8,250.9 604.4,263.3 608.1,274.7 611.7,285.3 612.7,288.4 615.4,296.0 619.1,311.0 622.7,323.9 623.8,328.8 626.4,335.5 630.0,346.8 633.7,356.8 637.3,366.9 641.0,375.4 644.6,385.9 648.3,390.2 651.9,396.4 655.6,401.7 659.3,404.0 662.9,408.4 666.6,411.2 670.2,414.2 673.9,416.2 677.5,417.7 681.2,419.7 684.8,420.7 688.5,421.4 692.1,422.5 695.8,424.1 699.5,424.8 703.1,425.3 706.8,425.5 710.4,425.5 714.1,425.5"/>
<rect x="768" y="156" width="12" height="12" fill="#0891b2"/>
<text x="786" y="166" font-family="Arial" font-size="12" fill="#111827">pma_stageaware_oracle</text>
<text x="409.0" y="498" text-anchor="middle" font-family="Arial" font-size="13">threshold delta</text>
<text transform="translate(20 248.0) rotate(-90)" text-anchor="middle" font-family="Arial" font-size="13">calibration RR</text>
</svg>