<svg xmlns="http://www.w3.org/2000/svg" width="888" height="212" viewBox="0 0 888 212">
<rect width="100%" height="100%" fill="white"/>
<text x="72" y="20" font-family="sans-serif" font-size="14">E5 PIS_LPIPS heatmap</text>
<rect x="72" y="32" width="8" height="18" fill="#f1f1f1"/>
<rect x="80" y="32" width="8" height="18" fill="#ff3c14"/>
<rect x="88" y="32" width="8" height="18" fill="#ffc3b1"/>
<rect x="96" y="32" width="8" height="18" fill="#ffa791"/>
<rect x="104" y="32" width="8" height="18" fill="#ffe3d6"/>
<rect x="112" y="32" width="8" height="18" fill="#ffd4c5"/>
<rect x="120" y="32" width="8" height="18" fill="#fff1e6"/>
<rect x="128" y="32" width="8" height="18" fill="#ffeee3"/>
<rect x="136" y="32" width="8" height="18" fill="#fff4ea"/>
<rect x="144" y="32" width="8" height="18" fill="#fff3e9"/>
<rect x="152" y="32" width="8" height="18" fill="#fff4ea"/>
<rect x="160" y="32" width="8" height="18" fill="#ffeee3"/>
<rect x="168" y="32" width="8" height="18" fill="#fff4ea"/>
<rect x="176" y="32" width="8" height="18" fill="#ffede1"/>
<rect x="184" y="32" width="8" height="18" fill="#fff4ea"/>
<rect x="192" y="32" width="8" height="18" fill="#fff1e7"/>
<rect x="200" y="32" width="8" height="18" fill="#fff4ea"/>
<rect x="208" y="32" width="8" height="18" fill="#fff4ea"/>
<rect x="216" y="32" width="8" height="18" fill="#fff4ea"/>
<rect x="224" y="32" width="8" height="18" fill="#fff4ea"/>
<rect x="232" y="32" width="8" height="18" fill="#fff4ea"/>
<rect x="240" y="32" width="8" height="18" fill="#fff4ea"/>
<rect x="248" y="32" width="8" height="18" fill="#fff4ea"/>
<rect x="256" y="32" width="8" height="18" fill="#fff4ea"/>
<rect x="264" y="32" width="8" height="18" fill="#fff4ea"/>
<rect x="272" y="32" width="8" height="18" fill="#fff4ea"/>
<rect x="280" y="32" width="8" height="18" fill="#fff4ea"/>
<rect x="288" y="32" width="8" height="18" fill="#fff4ea"/>
<rect x="296" y="32" width="8" height="18" fill="#fff4ea"/>
<rect x="304" y="32" width="8" height="18" fill="#fff4ea"/>
<rect x="312" y="32" width="8" height="18" fill="#fff4ea"/>
<rect x="320" y="32" width="8" height="18" fill="#fff4ea"/>
<rect x="328" y="32" width="8" height="18" fill="#fff4ea"/>
<rect x="336" y="32" width="8" height="18" fill="#fff4ea"/>
<rect x="344" y="32" width="8" height="18" fill="#fff4ea"/>
<rect x="352" y="32" width="8" height="18" fill="#fff4ea"/>
<rect x="360" y="32" width="8" height="18" fill="#fff4ea"/>
<rect x="368" y="32" width="8" height="18" fill="#fff4ea"/>
<rect x="376" y="32" width="8" height="18" fill="#fff4ea"/>
<rect x="384" y="32" width="8" height="18" fill="#fff4ea"/>
<rect x="392" y="32" width="8" height="18" fill="#fff4ea"/>
<rect x="400" y="32" width="8" height="18" fill="#fff4ea"/>
<rect x="408" y="32" width="8" height="18" fill="#fff4ea"/>
<rect x="416" y="32" width="8" height="18" fill="#fff4ea"/>
<rect x="424" y="32" width="8" height="18" fill="#fff4ea"/>
<rect x="432" y="32" width="8" height="18" fill="#fff4ea"/>
<rect x="440" y="32" width="8" height="18" fill="#fff4ea"/>
<rect x="448" y="32" width="8" height="18" fill="#fff4ea"/>
<rect x="456" y="32" width="8" height="18" fill="#fff4ea"/>
<rect x="464" y="32" width="8" height="18" fill="#fff4ea"/>
<rect x="472" y="32" width="8" height="18" fill="#fff4ea"/>
<rect x="480" y="32" width="8" height="18" fill="#fff4ea"/>
<rect x="488" y="32" width="8" height="18" fill="#fff4ea"/>
<rect x="496" y="32" width="8" height="18" fill="#fff4ea"/>
<rect x="504" y="32" width="8" height="18" fill="#fff4ea"/>
<rect x="512" y="32" width="8" height="18" fill="#fff4ea"/>
<rect x="520" y="32" width="8" height="18" fill="#fff4ea"/>
<rect x="528" y="32" width="8" height="18" fill="#fff4ea"/>
<rect x="536" y="32" width="8" height="18" fill="#fff4ea"/>
<rect x="544" y="32" width="8" height="18" fill="#fff4ea"/>
<rect x="552" y="32" width="8" height="18" fill="#fff4ea"/>
<rect x="560" y="32" width="8" height="18" fill="#fff4ea"/>
<rect x="568" y="32" width="8" height="18" fill="#fff4ea"/>
<rect x="576" y="32" width="8" height="18" fill="#fff4ea"/>
<rect x="584" y="32" width="8" height="18" fill="#fff4ea"/>
<rect x="592" y="32" width="8" height="18" fill="#fff4ea"/>
<rect x="600" y="32" width="8" height="18" fill="#fff4ea"/>
<rect x="608" y="32" width="8" height="18" fill="#fff4ea"/>
<rect x="616" y="32" width="8" height="18" fill="#fff4ea"/>
<rect x="624" y="32" width="8" height="18" fill="#fff4ea"/>
<rect x="632" y="32" width="8" height="18" fill="#fff4ea"/>
<rect x="640" y="32" width="8" height="18" fill="#fff4ea"/>
<rect x="648" y="32" width="8" height="18" fill="#fff4ea"/>
<rect x="656" y="32" width="8" height="18" fill="#fff4ea"/>
<rect x="664" y="32" width="8" height="18" fill="#fff4ea"/>
<rect x="672" y="32" width="8" height="18" fill="#fff4ea"/>
<rect x="680" y="32" width="8" height="18" fill="#fff4ea"/>
<rect x="688" y="32" width="8" height="18" fill="#fff4ea"/>
<rect x="696" y="32" width="8" height="18" fill="#fff4ea"/>
<rect x="704" y="32" width="8" height="18" fill="#fff4ea"/>
<rect x="712" y="32" width="8" height="18" fill="#fff4ea"/>
<rect x="720" y="32" width="8" height="18" fill="#fff4ea"/>
<rect x="728" y="32" width="8" height="18" fill="#fff4ea"/>
<rect x="736" y="32" width="8" height="18" fill="#fff4ea"/>
<rect x="744" y="32" width="8" height="18" fill="#fff4ea"/>
<rect x="752" y="32" width="8" height="18" fill="#fff4ea"/>
<rect x="760" y="32" width="8" height="18" fill="#fff4ea"/>
<rect x="768" y="32" width="8" height="18" fill="#fff4ea"/>
<rect x="776" y="32" width="8" height="18" fill="#fff4ea"/>
<rect x="784" y="32" width="8" height="18" fill="#fff4ea"/>
<rect x="792" y="32" width="8" height="18" fill="#fff4ea"/>
<rect x="800" y="32" width="8" height="18" fill="#fff4ea"/>
<rect x="808" y="32" width="8" height="18" fill="#fff4ea"/>
<rect x="816" y="32" width="8" height="18" fill="#fff4ea"/>
<rect x="824" y="32" width="8" height="18" fill="#fff4ea"/>
<rect x="832" y="32" width="8" height="18" fill="#fff4ea"/>
<rect x="840" y="32" width="8" height="18" fill="#fff4ea"/>
<rect x="848" y="32" width="8" height="18" fill="#fff4ea"/>
<rect x="856" y="32" width="8" height="18" fill="#fff4ea"/>
<rect x="72" y="50" width="8" height="18" fill="#f1f1f1"/>
<rect x="80" y="50" width="8" height="18" fill="#fff3e9"/>
<rect x="88" y="50" width="8" height="18" fill="#fff4ea"/>
<rect x="96" y="50" width="8" height="18" fill="#fff3e9"/>
<rect x="104" y="50" width="8" height="18" fill="#fff4ea"/>
<rect x="112" y="50" width="8" height="18" fill="#fff4e9"/>
<rect x="120" y="50" width="8" height="18" fill="#fff4ea"/>
<rect x="128" y="50" width="8" height="18" fill="#fff4ea"/>
<rect x="136" y="50" width="8" height="18" fill="#fff4ea"/>
<rect x="144" y="50" width="8" height="18" fill="#fff4ea"/>
<rect x="152" y="50" width="8" height="18" fill="#fff4ea"/>
<rect x="160" y="50" width="8" height="18" fill="#fff4ea"/>
<rect x="168" y="50" width="8" height="18" fill="#fff4ea"/>
<rect x="176" y="50" width="8" height="18" fill="#fff4ea"/>
<rect x="184" y="50" width="8" height="18" fill="#fff4ea"/>
<rect x="192" y="50" width="8" height="18" fill="#fff4ea"/>
<rect x="200" y="50" width="8" height="18" fill="#fff4ea"/>
<rect x="208" y="50" width="8" height="18" fill="#fff4ea"/>
<rect x="216" y="50" width="8" height="18" fill="#fff4ea"/>
<rect x="224" y="50" width="8" height="18" fill="#fff4ea"/>
<rect x="232" y="50" width="8" height="18" fill="#fff4ea"/>
<rect x="240" y="50" width="8" height="18" fill="#fff4ea"/>
<rect x="248" y="50" width="8" height="18" fill="#fff4ea"/>
<rect x="256" y="50" width="8" height="18" fill="#fff4ea"/>
<rect x="264" y="50" width="8" height="18" fill="#fff4ea"/>
<rect x="272" y="50" width="8" height="18" fill="#fff4ea"/>
<rect x="280" y="50" width="8" height="18" fill="#fff4ea"/>
<rect x="288" y="50" width="8" height="18" fill="#fff4ea"/>
<rect x="296" y="50" width="8" height="18" fill="#fff4ea"/>
<rect x="304" y="50" width="8" height="18" fill="#fff4ea"/>
<rect x="312" y="50" width="8" height="18" fill="#fff4ea"/>
<rect x="320" y="50" width="8" height="18" fill="#fff4ea"/>
<rect x="328" y="50" width="8" height="18" fill="#fff4ea"/>
<rect x="336" y="50" width="8" height="18" fill="#fff4ea"/>
<rect x="344" y="50" width="8" height="18" fill="#fff4ea"/>
<rect x="352" y="50" width="8" height="18" fill="#fff4ea"/>
<rect x="360" y="50" width="8" height="18" fill="#fff4ea"/>
<rect x="368" y="50" width="8" height="18" fill="#fff4ea"/>
<rect x="376" y="50" width="8" height="18" fill="#fff4ea"/>
<rect x="384" y="50" width="8" height="18" fill="#fff4ea"/>
<rect x="392" y="50" width="8" height="18" fill="#fff4ea"/>
<rect x="400" y="50" width="8" height="18" fill="#fff4ea"/>
<rect x="408" y="50" width="8" height="18" fill="#fff4ea"/>
<rect x="416" y="50" width="8" height="18" fill="#fff4ea"/>
<rect x="424" y="50" width="8" height="18" fill="#fff4ea"/>
<rect x="432" y="50" width="8" height="18" fill="#fff4ea"/>
<rect x="440" y="50" width="8" height="18" fill="#fff4ea"/>
<rect x="448" y="50" width="8" height="18" fill="#fff4ea"/>
<rect x="456" y="50" width="8" height="18" fill="#fff4ea"/>
<rect x="464" y="50" width="8" height="18" fill="#fff4ea"/>
<rect x="472" y="50" width="8" height="18" fill="#fff4ea"/>
<rect x="480" y="50" width="8" height="18" fill="#fff4ea"/>
<rect x="488" y="50" width="8" height="18" fill="#fff4ea"/>
<rect x="496" y="50" width="8" height="18" fill="#fff4ea"/>
<rect x="504" y="50" width="8" height="18" fill="#fff4ea"/>
<rect x="512" y="50" width="8" height="18" fill="#fff4ea"/>
<rect x="520" y="50" width="8" height="18" fill="#fff4ea"/>
<rect x="528" y="50" width="8" height="18" fill="#fff4ea"/>
<rect x="536" y="50" width="8" height="18" fill="#fff4ea"/>
<rect x="544" y="50" width="8" height="18" fill="#fff4ea"/>
<rect x="552" y="50" width="8" height="18" fill="#fff4ea"/>
<rect x="560" y="50" width="8" height="18" fill="#fff4ea"/>
<rect x="568" y="50" width="8" height="18" fill="#fff4ea"/>
<rect x="576" y="50" width="8" height="18" fill="#fff4ea"/>
<rect x="584" y="50" width="8" height="18" fill="#fff4ea"/>
<rect x="592" y="50" width="8" height="18" fill="#fff4ea"/>
<rect x="600" y="50" width="8" height="18" fill="#fff4ea"/>
<rect x="608" y="50" width="8" height="18" fill="#fff4ea"/>
<rect x="616" y="50" width="8" height="18" fill="#fff4ea"/>
<rect x="624" y="50" width="8" height="18" fill="#fff4ea"/>
<rect x="632" y="50" width="8" height="18" fill="#fff4ea"/>
<rect x="640" y="50" width="8" height="18" fill="#fff4ea"/>
<rect x="648" y="50" width="8" height="18" fill="#fff4ea"/>
<rect x="656" y="50" width="8" height="18" fill="#fff4ea"/>
<rect x="664" y="50" width="8" height="18" fill="#fff4ea"/>
<rect x="672" y="50" width="8" height="18" fill="#fff4ea"/>
<rect x="680" y="50" width="8" height="18" fill="#fff4ea"/>
<rect x="688" y="50" width="8" height="18" fill="#fff4ea"/>
<rect x="696" y="50" width="8" height="18" fill="#fff4ea"/>
<rect x="704" y="50" width="8" height="18" fill="#fff4ea"/>
<rect x="712" y="50" width="8" height="18" fill="#fff4ea"/>
<rect x="720" y="50" width="8" height="18" fill="#fff4ea"/>
<rect x="728" y="50" width="8" height="18" fill="#fff4ea"/>
<rect x="736" y="50" width="8" height="18" fill="#fff4ea"/>
<rect x="744" y="50" width="8" height="18" fill="#fff4ea"/>
<rect x="752" y="50" width="8" height="18" fill="#fff4ea"/>
<rect x="760" y="50" width="8" height="18" fill="#fff4ea"/>
<rect x="768" y="50" width="8" height="18" fill="#fff4ea"/>
<rect x="776" y="50" width="8" height="18" fill="#fff4ea"/>
<rect x="784" y="50" width="8" height="18" fill="#fff4ea"/>
<rect x="792" y="50" width="8" height="18" fill="#fff4ea"/>
<rect x="800" y="50" width="8" height="18" fill="#fff4ea"/>
<rect x="808" y="50" width="8" height="18" fill="#fff4ea"/>
<rect x="816" y="50" width="8" height="18" fill="#fff4ea"/>
<rect x="824" y="50" width="8" height="18" fill="#fff4ea"/>
<rect x="832" y="50" width="8" height="18" fill="#fff4ea"/>
<rect x="840" y="50" width="8" height="18" fill="#fff4ea"/>
<rect x="848" y="50" width="8" height="18" fill="#fff4ea"/>
<rect x="856" y="50" width="8" height="18" fill="#fff4ea"/>
<rect x="72" y="68" width="8" height="18" fill="#f1f1f1"/>
<rect x="80" y="68" width="8" height="18" fill="#ffeee3"/>
<rect x="88" y="68" width="8" height="18" fill="#fff4ea"/>
<rect x="96" y="68" width="8" height="18" fill="#ffece0"/>
<rect x="104" y="68" width="8" height="18" fill="#fff4ea"/>
<rect x="112" y="68" width="8" height="18" fill="#ffebe0"/>
<rect x="120" y="68" width="8" height="18" fill="#fff4e9"/>
<rect x="128" y="68" width="8" height="18" fill="#ffeee3"/>
<rect x="136" y="68" width="8" height="18" fill="#fff4ea"/>
<rect x="144" y="68" width="8" height="18" fill="#fff4ea"/>
<rect x="152" y="68" width="8" height="18" fill="#fff4ea"/>
<rect x="160" y="68" width="8" height="18" fill="#fff4ea"/>
<rect x="168" y="68" width="8" height="18" fill="#fff4ea"/>
<rect x="176" y="68" width="8" height="18" fill="#fff4ea"/>
<rect x="184" y="68" width="8" height="18" fill="#fff4ea"/>
<rect x="192" y="68" width="8" height="18" fill="#fff4ea"/>
<rect x="200" y="68" width="8" height="18" fill="#fff4ea"/>
<rect x="208" y="68" width="8" height="18" fill="#fff4ea"/>
<rect x="216" y="68" width="8" height="18" fill="#fff4ea"/>
<rect x="224" y="68" width="8" height="18" fill="#fff4ea"/>
<rect x="232" y="68" width="8" height="18" fill="#fff4ea"/>
<rect x="240" y="68" width="8" height="18" fill="#fff4ea"/>
<rect x="248" y="68" width="8" height="18" fill="#fff4ea"/>
<rect x="256" y="68" width="8" height="18" fill="#fff4ea"/>
<rect x="264" y="68" width="8" height="18" fill="#fff4ea"/>
<rect x="272" y="68" width="8" height="18" fill="#fff4ea"/>
<rect x="280" y="68" width="8" height="18" fill="#fff4ea"/>
<rect x="288" y="68" width="8" height="18" fill="#fff4ea"/>
<rect x="296" y="68" width="8" height="18" fill="#fff4ea"/>
<rect x="304" y="68" width="8" height="18" fill="#fff4ea"/>
<rect x="312" y="68" width="8" height="18" fill="#fff4ea"/>
<rect x="320" y="68" width="8" height="18" fill="#fff4ea"/>
<rect x="328" y="68" width="8" height="18" fill="#fff4ea"/>
<rect x="336" y="68" width="8" height="18" fill="#fff4ea"/>
<rect x="344" y="68" width="8" height="18" fill="#fff4ea"/>
<rect x="352" y="68" width="8" height="18" fill="#fff4ea"/>
<rect x="360" y="68" width="8" height="18" fill="#fff4ea"/>
<rect x="368" y="68" width="8" height="18" fill="#fff4ea"/>
<rect x="376" y="68" width="8" height="18" fill="#fff4ea"/>
<rect x="384" y="68" width="8" height="18" fill="#fff4ea"/>
<rect x="392" y="68" width="8" height="18" fill="#fff4ea"/>
<rect x="400" y="68" width="8" height="18" fill="#fff4ea"/>
<rect x="408" y="68" width="8" height="18" fill="#fff4ea"/>
<rect x="416" y="68" width="8" height="18" fill="#fff4ea"/>
<rect x="424" y="68" width="8" height="18" fill="#fff4ea"/>
<rect x="432" y="68" width="8" height="18" fill="#fff4ea"/>
<rect x="440" y="68" width="8" height="18" fill="#fff4ea"/>
<rect x="448" y="68" width="8" height="18" fill="#fff4ea"/>
<rect x="456" y="68" width="8" height="18" fill="#fff4ea"/>
<rect x="464" y="68" width="8" height="18" fill="#fff4ea"/>
<rect x="472" y="68" width="8" height="18" fill="#fff4ea"/>
<rect x="480" y="68" width="8" height="18" fill="#fff4ea"/>
<rect x="488" y="68" width="8" height="18" fill="#fff4ea"/>
<rect x="496" y="68" width="8" height="18" fill="#fff4ea"/>
<rect x="504" y="68" width="8" height="18" fill="#fff4ea"/>
<rect x="512" y="68" width="8" height="18" fill="#fff4ea"/>
<rect x="520" y="68" width="8" height="18" fill="#fff4ea"/>
<rect x="528" y="68" width="8" height="18" fill="#fff4ea"/>
<rect x="536" y="68" width="8" height="18" fill="#fff4ea"/>
<rect x="544" y="68" width="8" height="18" fill="#fff4ea"/>
<rect x="552" y="68" width="8" height="18" fill="#fff4ea"/>
<rect x="560" y="68" width="8" height="18" fill="#fff4ea"/>
<rect x="568" y="68" width="8" height="18" fill="#fff4ea"/>
<rect x="576" y="68" width="8" height="18" fill="#fff4ea"/>
<rect x="584" y="68" width="8" height="18" fill="#fff4ea"/>
<rect x="592" y="68" width="8" height="18" fill="#fff4ea"/>
<rect x="600" y="68" width="8" height="18" fill="#fff4ea"/>
<rect x="608" y="68" width="8" height="18" fill="#fff4ea"/>
<rect x="616" y="68" width="8" height="18" fill="#fff4ea"/>
<rect x="624" y="68" width="8" height="18" fill="#fff4ea"/>
<rect x="632" y="68" width="8" height="18" fill="#fff4ea"/>
<rect x="640" y="68" width="8" height="18" fill="#fff4ea"/>
<rect x="648" y="68" width="8" height="18" fill="#fff4ea"/>
<rect x="656" y="68" width="8" height="18" fill="#fff4ea"/>
<rect x="664" y="68" width="8" height="18" fill="#fff4ea"/>
<rect x="672" y="68" width="8" height="18" fill="#fff4ea"/>
<rect x="680" y="68" width="8" height="18" fill="#fff4ea"/>
<rect x="688" y="68" width="8" height="18" fill="#fff4ea"/>
<rect x="696" y="68" width="8" height="18" fill="#fff4ea"/>
<rect x="704" y="68" width="8" height="18" fill="#fff4ea"/>
<rect x="712" y="68" width="8" height="18" fill="#fff4ea"/>
<rect x="720" y="68" width="8" height="18" fill="#fff4ea"/>
<rect x="728" y="68" width="8" height="18" fill="#fff4ea"/>
<rect x="736" y="68" width="8" height="18" fill="#fff4ea"/>
<rect x="744" y="68" width="8" height="18" fill="#fff4ea"/>
<rect x="752" y="68" width="8" height="18" fill="#fff4ea"/>
<rect x="760" y="68" width="8" height="18" fill="#fff4ea"/>
<rect x="768" y="68" width="8" height="18" fill="#fff4ea"/>
<rect x="776" y="68" width="8" height="18" fill="#fff4ea"/>
<rect x="784" y="68" width="8" height="18" fill="#fff4ea"/>
<rect x="792" y="68" width="8" height="18" fill="#fff4ea"/>
<rect x="800" y="68" width="8" height="18" fill="#fff4ea"/>
<rect x="808" y="68" width="8" height="18" fill="#fff4ea"/>
<rect x="816" y="68" width="8" height="18" fill="#fff4ea"/>
<rect x="824" y="68" width="8" height="18" fill="#fff4ea"/>
<rect x="832" y="68" width="8" height="18" fill="#fff4ea"/>
<rect x="840" y="68" width="8" height="18" fill="#fff4ea"/>
<rect x="848" y="68" width="8" height="18" fill="#fff4ea"/>
<rect x="856" y="68" width="8" height="18" fill="#fff4ea"/>
<rect x="72" y="86" width="8" height="18" fill="#f1f1f1"/>
<rect x="80" y="86" width="8" height="18" fill="#fff2e7"/>
<rect x="88" y="86" width="8" height="18" fill="#fff4ea"/>
<rect x="96" y="86" width="8" height="18" fill="#fff3e9"/>
<rect x="104" y="86" width="8" height="18" fill="#fff4ea"/>
<rect x="112" y="86" width="8" height="18" fill="#fff4ea"/>
<rect x="120" y="86" width="8" height="18" fill="#fff4ea"/>
<rect x="128" y="86" width="8" height="18" fill="#fff4ea"/>
<rect x="136" y="86" width="8" height="18" fill="#fff4ea"/>
<rect x="144" y="86" width="8" height="18" fill="#fff4ea"/>
<rect x="152" y="86" width="8" height="18" fill="#fff4ea"/>
<rect x="160" y="86" width="8" height="18" fill="#fff4ea"/>
<rect x="168" y="86" width="8" height="18" fill="#fff4ea"/>
<rect x="176" y="86" width="8" height="18" fill="#fff4ea"/>
<rect x="184" y="86" width="8" height="18" fill="#fff4ea"/>
<rect x="192" y="86" width="8" height="18" fill="#fff4ea"/>
<rect x="200" y="86" width="8" height="18" fill="#fff4ea"/>
<rect x="208" y="86" width="8" height="18" fill="#fff4ea"/>
<rect x="216" y="86" width="8" height="18" fill="#fff4ea"/>
<rect x="224" y="86" width="8" height="18" fill="#fff4ea"/>
<rect x="232" y="86" width="8" height="18" fill="#fff4ea"/>
<rect x="240" y="86" width="8" height="18" fill="#fff4ea"/>
<rect x="248" y="86" width="8" height="18" fill="#fff4ea"/>
<rect x="256" y="86" width="8" height="18" fill="#fff4ea"/>
<rect x="264" y="86" width="8" height="18" fill="#fff4ea"/>
<rect x="272" y="86" width="8" height="18" fill="#fff4ea"/>
<rect x="280" y="86" width="8" height="18" fill="#fff4ea"/>
<rect x="288" y="86" width="8" height="18" fill="#fff4ea"/>
<rect x="296" y="86" width="8" height="18" fill="#fff4ea"/>
<rect x="304" y="86" width="8" height="18" fill="#fff4ea"/>
<rect x="312" y="86" width="8" height="18" fill="#fff4ea"/>
<rect x="320" y="86" width="8" height="18" fill="#fff4ea"/>
<rect x="328" y="86" width="8" height="18" fill="#fff4ea"/>
<rect x="336" y="86" width="8" height="18" fill="#fff4ea"/>
<rect x="344" y="86" width="8" height="18" fill="#fff4ea"/>
<rect x="352" y="86" width="8" height="18" fill="#fff4ea"/>
<rect x="360" y="86" width="8" height="18" fill="#fff4ea"/>
<rect x="368" y="86" width="8" height="18" fill="#fff4ea"/>
<rect x="376" y="86" width="8" height="18" fill="#fff4ea"/>
<rect x="384" y="86" width="8" height="18" fill="#fff4ea"/>
<rect x="392" y="86" width="8" height="18" fill="#fff4ea"/>
<rect x="400" y="86" width="8" height="18" fill="#fff4ea"/>
<rect x="408" y="86" width="8" height="18" fill="#fff4ea"/>
<rect x="416" y="86" width="8" height="18" fill="#fff4ea"/>
<rect x="424" y="86" width="8" height="18" fill="#fff4ea"/>
<rect x="432" y="86" width="8" height="18" fill="#fff4ea"/>
<rect x="440" y="86" width="8" height="18" fill="#fff4ea"/>
<rect x="448" y="86" width="8" height="18" fill="#fff4ea"/>
<rect x="456" y="86" width="8" height="18" fill="#fff4ea"/>
<rect x="464" y="86" width="8" height="18" fill="#fff4ea"/>
<rect x="472" y="86" width="8" height="18" fill="#fff4ea"/>
<rect x="480" y="86" width="8" height="18" fill="#fff4ea"/>
<rect x="488" y="86" width="8" height="18" fill="#fff4ea"/>
<rect x="496" y="86" width="8" height="18" fill="#fff4ea"/>
<rect x="504" y="86" width="8" height="18" fill="#fff4ea"/>
<rect x="512" y="86" width="8" height="18" fill="#fff4ea"/>
<rect x="520" y="86" width="8" height="18" fill="#fff4ea"/>
<rect x="528" y="86" width="8" height="18" fill="#fff4ea"/>
<rect x="536" y="86" width="8" height="18" fill="#fff4ea"/>
<rect x="544" y="86" width="8" height="18" fill="#fff4ea"/>
<rect x="552" y="86" width="8" height="18" fill="#fff4ea"/>
<rect x="560" y="86" width="8" height="18" fill="#fff4ea"/>
<rect x="568" y="86" width="8" height="18" fill="#fff4ea"/>
<rect x="576" y="86" width="8" height="18" fill="#fff4ea"/>
<rect x="584" y="86" width="8" height="18" fill="#fff4ea"/>
<rect x="592" y="86" width="8" height="18" fill="#fff4ea"/>
<rect x="600" y="86" width="8" height="18" fill="#fff4ea"/>
<rect x="608" y="86" width="8" height="18" fill="#fff4ea"/>
<rect x="616" y="86" width="8" height="18" fill="#fff4ea"/>
<rect x="624" y="86" width="8" height="18" fill="#fff4ea"/>
<rect x="632" y="86" width="8" height="18" fill="#fff4ea"/>
<rect x="640" y="86" width="8" height="18" fill="#fff4ea"/>
<rect x="648" y="86" width="8" height="18" fill="#fff4ea"/>
<rect x="656" y="86" width="8" height="18" fill="#fff4ea"/>
<rect x="664" y="86" width="8" height="18" fill="#fff4ea"/>
<rect x="672" y="86" width="8" height="18" fill="#fff4ea"/>
<rect x="680" y="86" width="8" height="18" fill="#fff4ea"/>
<rect x="688" y="86" width="8" height="18" fill="#fff4ea"/>
<rect x="696" y="86" width="8" height="18" fill="#fff4ea"/>
<rect x="704" y="86" width="8" height="18" fill="#fff4ea"/>
<rect x="712" y="86" width="8" height="18" fill="#fff4ea"/>
<rect x="720" y="86" width="8" height="18" fill="#fff4ea"/>
<rect x="728" y="86" width="8" height="18" fill="#fff4ea"/>
<rect x="736" y="86" width="8" height="18" fill="#fff4ea"/>
<rect x="744" y="86" width="8" height="18" fill="#fff4ea"/>
<rect x="752" y="86" width="8" height="18" fill="#fff4ea"/>
<rect x="760" y="86" width="8" height="18" fill="#fff4ea"/>
<rect x="768" y="86" width="8" height="18" fill="#fff4ea"/>
<rect x="776" y="86" width="8" height="18" fill="#fff4ea"/>
<rect x="784" y="86" width="8" height="18" fill="#fff4ea"/>
<rect x="792" y="86" width="8" height="18" fill="#fff4ea"/>
<rect x="800" y="86" width="8" height="18" fill="#fff4ea"/>
<rect x="808" y="86" width="8" height="18" fill="#fff4ea"/>
<rect x="816" y="86" width="8" height="18" fill="#fff4ea"/>
<rect x="824" y="86" width="8" height="18" fill="#fff4ea"/>
<rect x="832" y="86" width="8" height="18" fill="#fff4ea"/>
<rect x="840" y="86" width="8" height="18" fill="#fff4ea"/>
<rect x="848" y="86" width="8" height="18" fill="#fff4ea"/>
<rect x="856" y="86" width="8" height="18" fill="#fff4e9"/>
<rect x="72" y="104" width="8" height="18" fill="#f1f1f1"/>
<rect x="80" y="104" width="8" height="18" fill="#ff967d"/>
<rect x="88" y="104" width="8" height="18" fill="#ffe1d4"/>
<rect x="96" y="104" width="8" height="18" fill="#ffc4b3"/>
<rect x="104" y="104" width="8" height="18" fill="#ffefe4"/>
<rect x="112" y="104" width="8" height="18" fill="#ffd7c9"/>
<rect x="120" y="104" width="8" height="18" fill="#fff3e8"/>
<rect x="128" y="104" width="8" height="18" fill="#ffe7db"/>
<rect x="136" y="104" width="8" height="18" fill="#fff4ea"/>
<rect x="144" y="104" width="8" height="18" fill="#fff2e7"/>
<rect x="152" y="104" width="8" height="18" fill="#fff4ea"/>
<rect x="160" y="104" width="8" height="18" fill="#fff4ea"/>
<rect x="168" y="104" width="8" height="18" fill="#fff4ea"/>
<rect x="176" y="104" width="8" height="18" fill="#fff4ea"/>
<rect x="184" y="104" width="8" height="18" fill="#fff4ea"/>
<rect x="192" y="104" width="8" height="18" fill="#fff4ea"/>
<rect x="200" y="104" width="8" height="18" fill="#fff4ea"/>
<rect x="208" y="104" width="8" height="18" fill="#fff4ea"/>
<rect x="216" y="104" width="8" height="18" fill="#fff4ea"/>
<rect x="224" y="104" width="8" height="18" fill="#fff4ea"/>
<rect x="232" y="104" width="8" height="18" fill="#fff4ea"/>
<rect x="240" y="104" width="8" height="18" fill="#fff4ea"/>
<rect x="248" y="104" width="8" height="18" fill="#fff4ea"/>
<rect x="256" y="104" width="8" height="18" fill="#fff4ea"/>
<rect x="264" y="104" width="8" height="18" fill="#fff4ea"/>
<rect x="272" y="104" width="8" height="18" fill="#fff4ea"/>
<rect x="280" y="104" width="8" height="18" fill="#fff4ea"/>
<rect x="288" y="104" width="8" height="18" fill="#fff4ea"/>
<rect x="296" y="104" width="8" height="18" fill="#fff4ea"/>
<rect x="304" y="104" width="8" height="18" fill="#fff4ea"/>
<rect x="312" y="104" width="8" height="18" fill="#fff4ea"/>
<rect x="320" y="104" width="8" height="18" fill="#fff4ea"/>
<rect x="328" y="104" width="8" height="18" fill="#fff4ea"/>
<rect x="336" y="104" width="8" height="18" fill="#fff4ea"/>
<rect x="344" y="104" width="8" height="18" fill="#fff4ea"/>
<rect x="352" y="104" width="8" height="18" fill="#fff4ea"/>
<rect x="360" y="104" width="8" height="18" fill="#fff4ea"/>
<rect x="368" y="104" width="8" height="18" fill="#fff4ea"/>
<rect x="376" y="104" width="8" height="18" fill="#fff4ea"/>
<rect x="384" y="104" width="8" height="18" fill="#fff4ea"/>
<rect x="392" y="104" width="8" height="18" fill="#fff4ea"/>
<rect x="400" y="104" width="8" height="18" fill="#fff4ea"/>
<rect x="408" y="104" width="8" height="18" fill="#fff4ea"/>
<rect x="416" y="104" width="8" height="18" fill="#fff4ea"/>
<rect x="424" y="104" width="8" height="18" fill="#fff4ea"/>
<rect x="432" y="104" width="8" height="18" fill="#fff4ea"/>
<rect x="440" y="104" width="8" height="18" fill="#fff4ea"/>
<rect x="448" y="104" width="8" height="18" fill="#fff4ea"/>
<rect x="456" y="104" width="8" height="18" fill="#fff4ea"/>
<rect x="464" y="104" width="8" height="18" fill="#fff4ea"/>
<rect x="472" y="104" width="8" height="18" fill="#fff4ea"/>
<rect x="480" y="104" width="8" height="18" fill="#fff4ea"/>
<rect x="488" y="104" width="8" height="18" fill="#fff4ea"/>
<rect x="496" y="104" width="8" height="18" fill="#fff4ea"/>
<rect x="504" y="104" width="8" height="18" fill="#fff4ea"/>
<rect x="512" y="104" width="8" height="18" fill="#fff4ea"/>
<rect x="520" y="104" width="8" height="18" fill="#fff4ea"/>
<rect x="528" y="104" width="8" height="18" fill="#fff4ea"/>
<rect x="536" y="104" width="8" height="18" fill="#fff4ea"/>
<rect x="544" y="104" width="8" height="18" fill="#fff4ea"/>
<rect x="552" y="104" width="8" height="18" fill="#fff4ea"/>
<rect x="560" y="104" width="8" height="18" fill="#fff4ea"/>
<rect x="568" y="104" width="8" height="18" fill="#fff4ea"/>
<rect x="576" y="104" width="8" height="18" fill="#fff4ea"/>
<rect x="584" y="104" width="8" height="18" fill="#fff4ea"/>
<rect x="592" y="104" width="8" height="18" fill="#fff4ea"/>
<rect x="600" y="104" width="8" height="18" fill="#fff4ea"/>
<rect x="608" y="104" width="8" height="18" fill="#fff4ea"/>
<rect x="616" y="104" width="8" height="18" fill="#fff4ea"/>
<rect x="624" y="104" width="8" height="18" fill="#fff4ea"/>
<rect x="632" y="104" width="8" height="18" fill="#fff4ea"/>
<rect x="640" y="104" width="8" height="18" fill="#fff4ea"/>
<rect x="648" y="104" width="8" height="18" fill="#fff4ea"/>
<rect x="656" y="104" width="8" height="18" fill="#fff4ea"/>
<rect x="664" y="104" width="8" height="18" fill="#fff4ea"/>
<rect x="672" y="104" width="8" height="18" fill="#fff4ea"/>
<rect x="680" y="104" width="8" height="18" fill="#fff4ea"/>
<rect x="688" y="104" width="8" height="18" fill="#fff4ea"/>
<rect x="696" y="104" width="8" height="18" fill="#fff4ea"/>
<rect x="704" y="104" width="8" height="18" fill="#fff4ea"/>
<rect x="712" y="104" width="8" height="18" fill="#fff4ea"/>
<rect x="720" y="104" width="8" height="18" fill="#fff4ea"/>
<rect x="728" y="104" width="8" height="18" fill="#fff4ea"/>
<rect x="736" y="104" width="8" height="18" fill="#fff4ea"/>
<rect x="744" y="104" width="8" height="18" fill="#fff4ea"/>
<rect x="752" y="104" width="8" height="18" fill="#fff4ea"/>
<rect x="760" y="104" width="8" height="18" fill="#fff4ea"/>
<rect x="768" y="104" width="8" height="18" fill="#fff4ea"/>
<rect x="776" y="104" width="8" height="18" fill="#fff4ea"/>
<rect x="784" y="104" width="8" height="18" fill="#fff4ea"/>
<rect x="792" y="104" width="8" height="18" fill="#fff4ea"/>
<rect x="800" y="104" width="8" height="18" fill="#fff4ea"/>
<rect x="808" y="104" width="8" height="18" fill="#fff4ea"/>
<rect x="816" y="104" width="8" height="18" fill="#fff4ea"/>
<rect x="824" y="104" width="8" height="18" fill="#fff4ea"/>
<rect x="832" y="104" width="8" height="18" fill="#fff4ea"/>
<rect x="840" y="104" width="8" height="18" fill="#fff4ea"/>
<rect x="848" y="104" width="8" height="18" fill="#fff4ea"/>
<rect x="856" y="104" width="8" height="18" fill="#fff4ea"/>
<rect x="72" y="122" width="8" height="18" fill="#f1f1f1"/>
<rect x="80" y="122" width="8" height="18" fill="#ffefe5"/>
<rect x="88" y="122" width="8" height="18" fill="#fff4ea"/>
<rect x="96" y="122" width="8" height="18" fill="#fff3e9"/>
<rect x="104" y="122" width="8" height="18" fill="#fff4ea"/>
<rect x="112" y="122" width="8" height="18" fill="#fff4ea"/>
<rect x="120" y="122" width="8" height="18" fill="#fff4ea"/>
<rect x="128" y="122" width="8" height="18" fill="#fff4ea"/>
<rect x="136" y="122" width="8" height="18" fill="#fff4ea"/>
<rect x="144" y="122" width="8" height="18" fill="#fff4ea"/>
<rect x="152" y="122" width="8" height="18" fill="#fff4ea"/>
<rect x="160" y="122" width="8" height="18" fill="#fff4ea"/>
<rect x="168" y="122" width="8" height="18" fill="#fff4ea"/>
<rect x="176" y="122" width="8" height="18" fill="#fff4ea"/>
<rect x="184" y="122" width="8" height="18" fill="#fff4ea"/>
<rect x="192" y="122" width="8" height="18" fill="#fff4ea"/>
<rect x="200" y="122" width="8" height="18" fill="#fff4ea"/>
<rect x="208" y="122" width="8" height="18" fill="#fff4ea"/>
<rect x="216" y="122" width="8" height="18" fill="#fff4ea"/>
<rect x="224" y="122" width="8" height="18" fill="#fff4ea"/>
<rect x="232" y="122" width="8" height="18" fill="#fff4ea"/>
<rect x="240" y="122" width="8" height="18" fill="#fff4ea"/>
<rect x="248" y="122" width="8" height="18" fill="#fff4ea"/>
<rect x="256" y="122" width="8" height="18" fill="#fff4ea"/>
<rect x="264" y="122" width="8" height="18" fill="#fff4ea"/>
<rect x="272" y="122" width="8" height="18" fill="#fff4ea"/>
<rect x="280" y="122" width="8" height="18" fill="#fff4ea"/>
<rect x="288" y="122" width="8" height="18" fill="#fff4ea"/>
<rect x="296" y="122" width="8" height="18" fill="#fff4ea"/>
<rect x="304" y="122" width="8" height="18" fill="#fff4ea"/>
<rect x="312" y="122" width="8" height="18" fill="#fff4ea"/>
<rect x="320" y="122" width="8" height="18" fill="#fff4ea"/>
<rect x="328" y="122" width="8" height="18" fill="#fff4ea"/>
<rect x="336" y="122" width="8" height="18" fill="#fff4ea"/>
<rect x="344" y="122" width="8" height="18" fill="#fff4ea"/>
<rect x="352" y="122" width="8" height="18" fill="#fff4ea"/>
<rect x="360" y="122" width="8" height="18" fill="#fff4ea"/>
<rect x="368" y="122" width="8" height="18" fill="#fff4ea"/>
<rect x="376" y="122" width="8" height="18" fill="#fff4ea"/>
<rect x="384" y="122" width="8" height="18" fill="#fff4ea"/>
<rect x="392" y="122" width="8" height="18" fill="#fff4ea"/>
<rect x="400" y="122" width="8" height="18" fill="#fff4ea"/>
<rect x="408" y="122" width="8" height="18" fill="#fff4ea"/>
<rect x="416" y="122" width="8" height="18" fill="#fff4ea"/>
<rect x="424" y="122" width="8" height="18" fill="#fff4ea"/>
<rect x="432" y="122" width="8" height="18" fill="#fff4ea"/>
<rect x="440" y="122" width="8" height="18" fill="#fff4ea"/>
<rect x="448" y="122" width="8" height="18" fill="#fff4ea"/>
<rect x="456" y="122" width="8" height="18" fill="#fff4ea"/>
<rect x="464" y="122" width="8" height="18" fill="#fff4ea"/>
<rect x="472" y="122" width="8" height="18" fill="#fff4ea"/>
<rect x="480" y="122" width="8" height="18" fill="#fff4ea"/>
<rect x="488" y="122" width="8" height="18" fill="#fff4ea"/>
<rect x="496" y="122" width="8" height="18" fill="#fff4ea"/>
<rect x="504" y="122" width="8" height="18" fill="#fff4ea"/>
<rect x="512" y="122" width="8" height="18" fill="#fff4ea"/>
<rect x="520" y="122" width="8" height="18" fill="#fff4ea"/>
<rect x="528" y="122" width="8" height="18" fill="#fff4ea"/>
<rect x="536" y="122" width="8" height="18" fill="#fff4ea"/>
<rect x="544" y="122" width="8" height="18" fill="#fff4ea"/>
<rect x="552" y="122" width="8" height="18" fill="#fff4ea"/>
<rect x="560" y="122" width="8" height="18" fill="#fff4ea"/>
<rect x="568" y="122" width="8" height="18" fill="#fff4ea"/>
<rect x="576" y="122" width="8" height="18" fill="#fff4ea"/>
<rect x="584" y="122" width="8" height="18" fill="#fff4ea"/>
<rect x="592" y="122" width="8" height="18" fill="#fff4ea"/>
<rect x="600" y="122" width="8" height="18" fill="#fff4ea"/>
<rect x="608" y="122" width="8" height="18" fill="#fff4ea"/>
<rect x="616" y="122" width="8" height="18" fill="#fff4ea"/>
<rect x="624" y="122" width="8" height="18" fill="#fff4ea"/>
<rect x="632" y="122" width="8" height="18" fill="#fff4ea"/>
<rect x="640" y="122" width="8" height="18" fill="#fff4ea"/>
<rect x="648" y="122" width="8" height="18" fill="#fff4ea"/>
<rect x="656" y="122" width="8" height="18" fill="#fff4ea"/>
<rect x="664" y="122" width="8" height="18" fill="#fff4ea"/>
<rect x="672" y="122" width="8" height="18" fill="#fff4ea"/>
<rect x="680" y="122" width="8" height="18" fill="#fff4ea"/>
<rect x="688" y="122" width="8" height="18" fill="#fff4ea"/>
<rect x="696" y="122" width="8" height="18" fill="#fff4ea"/>
<rect x="704" y="122" width="8" height="18" fill="#fff4ea"/>
<rect x="712" y="122" width="8" height="18" fill="#fff4ea"/>
<rect x="720" y="122" width="8" height="18" fill="#fff4ea"/>
<rect x="728" y="122" width="8" height="18" fill="#fff4ea"/>
<rect x="736" y="122" width="8" height="18" fill="#fff4ea"/>
<rect x="744" y="122" width="8" height="18" fill="#fff4ea"/>
<rect x="752" y="122" width="8" height="18" fill="#fff4ea"/>
<rect x="760" y="122" width="8" height="18" fill="#fff4ea"/>
<rect x="768" y="122" width="8" height="18" fill="#fff4ea"/>
<rect x="776" y="122" width="8" height="18" fill="#fff4ea"/>
<rect x="784" y="122" width="8" height="18" fill="#fff4ea"/>
<rect x="792" y="122" width="8" height="18" fill="#fff4ea"/>
<rect x="800" y="122" width="8" height="18" fill="#fff4ea"/>
<rect x="808" y="122" width="8" height="18" fill="#fff4ea"/>
<rect x="816" y="122" width="8" height="18" fill="#fff4ea"/>
<rect x="824" y="122" width="8" height="18" fill="#fff4ea"/>
<rect x="832" y="122" width="8" height="18" fill="#fff4ea"/>
<rect x="840" y="122" width="8" height="18" fill="#fff4ea"/>
<rect x="848" y="122" width="8" height="18" fill="#fff4ea"/>
<rect x="856" y="122" width="8" height="18" fill="#fff4ea"/>
<rect x="72" y="140" width="8" height="18" fill="#f1f1f1"/>
<rect x="80" y="140" width="8" height="18" fill="#ffeadf"/>
<rect x="88" y="140" width="8" height="18" fill="#fff3e9"/>
<rect x="96" y="140" width="8" height="18" fill="#fff3e8"/>
<rect x="104" y="140" width="8" height="18" fill="#fff4ea"/>
<rect x="112" y="140" width="8" height="18" fill="#fff4e9"/>
<rect x="120" y="140" width="8" height="18" fill="#fff4ea"/>
<rect x="128" y="140" width="8" height="18" fill="#fff4ea"/>
<rect x="136" y="140" width="8" height="18" fill="#fff4ea"/>
<rect x="144" y="140" width="8" height="18" fill="#fff4ea"/>
<rect x="152" y="140" width="8" height="18" fill="#fff4ea"/>
<rect x="160" y="140" width="8" height="18" fill="#fff4ea"/>
<rect x="168" y="140" width="8" height="18" fill="#fff4ea"/>
<rect x="176" y="140" width="8" height="18" fill="#fff4ea"/>
<rect x="184" y="140" width="8" height="18" fill="#fff4ea"/>
<rect x="192" y="140" width="8" height="18" fill="#fff4ea"/>
<rect x="200" y="140" width="8" height="18" fill="#fff4ea"/>
<rect x="208" y="140" width="8" height="18" fill="#fff4ea"/>
<rect x="216" y="140" width="8" height="18" fill="#fff4ea"/>
<rect x="224" y="140" width="8" height="18" fill="#fff4ea"/>
<rect x="232" y="140" width="8" height="18" fill="#fff4ea"/>
<rect x="240" y="140" width="8" height="18" fill="#fff4ea"/>
<rect x="248" y="140" width="8" height="18" fill="#fff4ea"/>
<rect x="256" y="140" width="8" height="18" fill="#fff4ea"/>
<rect x="264" y="140" width="8" height="18" fill="#fff4ea"/>
<rect x="272" y="140" width="8" height="18" fill="#fff4ea"/>
<rect x="280" y="140" width="8" height="18" fill="#fff4ea"/>
<rect x="288" y="140" width="8" height="18" fill="#fff4ea"/>
<rect x="296" y="140" width="8" height="18" fill="#fff4ea"/>
<rect x="304" y="140" width="8" height="18" fill="#fff4ea"/>
<rect x="312" y="140" width="8" height="18" fill="#fff4ea"/>
<rect x="320" y="140" width="8" height="18" fill="#fff4ea"/>
<rect x="328" y="140" width="8" height="18" fill="#fff4ea"/>
<rect x="336" y="140" width="8" height="18" fill="#fff4ea"/>
<rect x="344" y="140" width="8" height="18" fill="#fff4ea"/>
<rect x="352" y="140" width="8" height="18" fill="#fff4ea"/>
<rect x="360" y="140" width="8" height="18" fill="#fff4ea"/>
<rect x="368" y="140" width="8" height="18" fill="#fff4ea"/>
<rect x="376" y="140" width="8" height="18" fill="#fff4ea"/>
<rect x="384" y="140" width="8" height="18" fill="#fff4ea"/>
<rect x="392" y="140" width="8" height="18" fill="#fff4ea"/>
<rect x="400" y="140" width="8" height="18" fill="#fff4ea"/>
<rect x="408" y="140" width="8" height="18" fill="#fff4ea"/>
<rect x="416" y="140" width="8" height="18" fill="#fff4ea"/>
<rect x="424" y="140" width="8" height="18" fill="#fff4ea"/>
<rect x="432" y="140" width="8" height="18" fill="#fff4ea"/>
<rect x="440" y="140" width="8" height="18" fill="#fff4ea"/>
<rect x="448" y="140" width="8" height="18" fill="#fff4ea"/>
<rect x="456" y="140" width="8" height="18" fill="#fff4ea"/>
<rect x="464" y="140" width="8" height="18" fill="#fff4ea"/>
<rect x="472" y="140" width="8" height="18" fill="#fff4ea"/>
<rect x="480" y="140" width="8" height="18" fill="#fff4ea"/>
<rect x="488" y="140" width="8" height="18" fill="#fff4ea"/>
<rect x="496" y="140" width="8" height="18" fill="#fff4ea"/>
<rect x="504" y="140" width="8" height="18" fill="#fff4ea"/>
<rect x="512" y="140" width="8" height="18" fill="#fff4ea"/>
<rect x="520" y="140" width="8" height="18" fill="#fff4ea"/>
<rect x="528" y="140" width="8" height="18" fill="#fff4ea"/>
<rect x="536" y="140" width="8" height="18" fill="#fff4ea"/>
<rect x="544" y="140" width="8" height="18" fill="#fff4ea"/>
<rect x="552" y="140" width="8" height="18" fill="#fff4ea"/>
<rect x="560" y="140" width="8" height="18" fill="#fff4ea"/>
<rect x="568" y="140" width="8" height="18" fill="#fff4ea"/>
<rect x="576" y="140" width="8" height="18" fill="#fff4ea"/>
<rect x="584" y="140" width="8" height="18" fill="#fff4ea"/>
<rect x="592" y="140" width="8" height="18" fill="#fff4ea"/>
<rect x="600" y="140" width="8" height="18" fill="#fff4ea"/>
<rect x="608" y="140" width="8" height="18" fill="#fff4ea"/>
<rect x="616" y="140" width="8" height="18" fill="#fff4ea"/>
<rect x="624" y="140" width="8" height="18" fill="#fff4ea"/>
<rect x="632" y="140" width="8" height="18" fill="#fff4ea"/>
<rect x="640" y="140" width="8" height="18" fill="#fff4ea"/>
<rect x="648" y="140" width="8" height="18" fill="#fff4ea"/>
<rect x="656" y="140" width="8" height="18" fill="#fff4ea"/>
<rect x="664" y="140" width="8" height="18" fill="#fff4ea"/>
<rect x="672" y="140" width="8" height="18" fill="#fff4ea"/>
<rect x="680" y="140" width="8" height="18" fill="#fff4ea"/>
<rect x="688" y="140" width="8" height="18" fill="#fff4ea"/>
<rect x="696" y="140" width="8" height="18" fill="#fff4ea"/>
<rect x="704" y="140" width="8" height="18" fill="#fff4ea"/>
<rect x="712" y="140" width="8" height="18" fill="#fff4ea"/>
<rect x="720" y="140" width="8" height="18" fill="#fff4ea"/>
<rect x="728" y="140" width="8" height="18" fill="#fff4ea"/>
<rect x="736" y="140" width="8" height="18" fill="#fff4ea"/>
<rect x="744" y="140" width="8" height="18" fill="#fff4ea"/>
<rect x="752" y="140" width="8" height="18" fill="#fff4ea"/>
<rect x="760" y="140" width="8" height="18" fill="#fff4ea"/>
<rect x="768" y="140" width="8" height="18" fill="#fff4ea"/>
<rect x="776" y="140" width="8" height="18" fill="#fff4ea"/>
<rect x="784" y="140" width="8" height="18" fill="#fff4ea"/>
<rect x="792" y="140" width="8" height="18" fill="#fff4ea"/>
<rect x="800" y="140" width="8" height="18" fill="#fff4ea"/>
<rect x="808" y="140" width="8" height="18" fill="#fff4ea"/>
<rect x="816" y="140" width="8" height="18" fill="#fff4ea"/>
<rect x="824" y="140" width="8" height="18" fill="#fff4ea"/>
<rect x="832" y="140" width="8" height="18" fill="#fff4ea"/>
<rect x="840" y="140" width="8" height="18" fill="#fff4ea"/>
<rect x="848" y="140" width="8" height="18" fill="#fff4ea"/>
<rect x="856" y="140" width="8" height="18" fill="#fff4ea"/>
<rect x="72" y="158" width="8" height="18" fill="#f1f1f1"/>
<rect x="80" y="158" width="8" height="18" fill="#ffcebd"/>
<rect x="88" y="158" width="8" height="18" fill="#ffe7da"/>
<rect x="96" y="158" width="8" height="18" fill="#ffe1d4"/>
<rect x="104" y="158" width="8" height="18" fill="#ffefe4"/>
<rect x="112" y="158" width="8" height="18" fill="#ffede2"/>
<rect x="120" y="158" width="8" height="18" fill="#fff4ea"/>
<rect x="128" y="158" width="8" height="18" fill="#fff4ea"/>
<rect x="136" y="158" width="8" height="18" fill="#fff4ea"/>
<rect x="144" y="158" width="8" height="18" fill="#fff4ea"/>
<rect x="152" y="158" width="8" height="18" fill="#fff4ea"/>
<rect x="160" y="158" width="8" height="18" fill="#fff4ea"/>
<rect x="168" y="158" width="8" height="18" fill="#fff4ea"/>
<rect x="176" y="158" width="8" height="18" fill="#fff4ea"/>
<rect x="184" y="158" width="8" height="18" fill="#fff4ea"/>
<rect x="192" y="158" width="8" height="18" fill="#fff4ea"/>
<rect x="200" y="158" width="8" height="18" fill="#fff4ea"/>
<rect x="208" y="158" width="8" height="18" fill="#fff4ea"/>
<rect x="216" y="158" width="8" height="18" fill="#fff4ea"/>
<rect x="224" y="158" width="8" height="18" fill="#fff4ea"/>
<rect x="232" y="158" width="8" height="18" fill="#fff4ea"/>
<rect x="240" y="158" width="8" height="18" fill="#fff4ea"/>
<rect x="248" y="158" width="8" height="18" fill="#fff4ea"/>
<rect x="256" y="158" width="8" height="18" fill="#fff4ea"/>
<rect x="264" y="158" width="8" height="18" fill="#fff4ea"/>
<rect x="272" y="158" width="8" height="18" fill="#fff4ea"/>
<rect x="280" y="158" width="8" height="18" fill="#fff4ea"/>
<rect x="288" y="158" width="8" height="18" fill="#fff4ea"/>
<rect x="296" y="158" width="8" height="18" fill="#fff4ea"/>
<rect x="304" y="158" width="8" height="18" fill="#fff4ea"/>
<rect x="312" y="158" width="8" height="18" fill="#fff4ea"/>
<rect x="320" y="158" width="8" height="18" fill="#fff4ea"/>
<rect x="328" y="158" width="8" height="18" fill="#fff4ea"/>
<rect x="336" y="158" width="8" height="18" fill="#fff4ea"/>
<rect x="344" y="158" width="8" height="18" fill="#fff4ea"/>
<rect x="352" y="158" width="8" height="18" fill="#fff4ea"/>
<rect x="360" y="158" width="8" height="18" fill="#fff4ea"/>
<rect x="368" y="158" width="8" height="18" fill="#fff4ea"/>
<rect x="376" y="158" width="8" height="18" fill="#fff4ea"/>
<rect x="384" y="158" width="8" height="18" fill="#fff4ea"/>
<rect x="392" y="158" width="8" height="18" fill="#fff4ea"/>
<rect x="400" y="158" width="8" height="18" fill="#fff4ea"/>
<rect x="408" y="158" width="8" height="18" fill="#fff4ea"/>
<rect x="416" y="158" width="8" height="18" fill="#fff4ea"/>
<rect x="424" y="158" width="8" height="18" fill="#fff4ea"/>
<rect x="432" y="158" width="8" height="18" fill="#fff4ea"/>
<rect x="440" y="158" width="8" height="18" fill="#fff4ea"/>
<rect x="448" y="158" width="8" height="18" fill="#fff4ea"/>
<rect x="456" y="158" width="8" height="18" fill="#fff4ea"/>
<rect x="464" y="158" width="8" height="18" fill="#fff4ea"/>
<rect x="472" y="158" width="8" height="18" fill="#fff4ea"/>
<rect x="480" y="158" width="8" height="18" fill="#fff4ea"/>
<rect x="488" y="158" width="8" height="18" fill="#fff4ea"/>
<rect x="496" y="158" width="8" height="18" fill="#fff4ea"/>
<rect x="504" y="158" width="8" height="18" fill="#fff4ea"/>
<rect x="512" y="158" width="8" height="18" fill="#fff4ea"/>
<rect x="520" y="158" width="8" height="18" fill="#fff4ea"/>
<rect x="528" y="158" width="8" height="18" fill="#fff4ea"/>
<rect x="536" y="158" width="8" height="18" fill="#fff4ea"/>
<rect x="544" y="158" width="8" height="18" fill="#fff4ea"/>
<rect x="552" y="158" width="8" height="18" fill="#fff4ea"/>
<rect x="560" y="158" width="8" height="18" fill="#fff4ea"/>
<rect x="568" y="158" width="8" height="18" fill="#fff4ea"/>
<rect x="576" y="158" width="8" height="18" fill="#fff4ea"/>
<rect x="584" y="158" width="8" height="18" fill="#fff4ea"/>
<rect x="592" y="158" width="8" height="18" fill="#fff4ea"/>
<rect x="600" y="158" width="8" height="18" fill="#fff4ea"/>
<rect x="608" y="158" width="8" height="18" fill="#fff4ea"/>
<rect x="616" y="158" width="8" height="18" fill="#fff4ea"/>
<rect x="624" y="158" width="8" height="18" fill="#fff4ea"/>
<rect x="632" y="158" width="8" height="18" fill="#fff4ea"/>
<rect x="640" y="158" width="8" height="18" fill="#fff4ea"/>
<rect x="648" y="158" width="8" height="18" fill="#fff4ea"/>
<rect x="656" y="158" width="8" height="18" fill="#fff4ea"/>
<rect x="664" y="158" width="8" height="18" fill="#fff4ea"/>
<rect x="672" y="158" width="8" height="18" fill="#fff4ea"/>
<rect x="680" y="158" width="8" height="18" fill="#fff4ea"/>
<rect x="688" y="158" width="8" height="18" fill="#fff4ea"/>
<rect x="696" y="158" width="8" height="18" fill="#fff4ea"/>
<rect x="704" y="158" width="8" height="18" fill="#fff4ea"/>
<rect x="712" y="158" width="8" height="18" fill="#fff4ea"/>
<rect x="720" y="158" width="8" height="18" fill="#fff4ea"/>
<rect x="728" y="158" width="8" height="18" fill="#fff4ea"/>
<rect x="736" y="158" width="8" height="18" fill="#fff4ea"/>
<rect x="744" y="158" width="8" height="18" fill="#fff4ea"/>
<rect x="752" y="158" width="8" height="18" fill="#fff4ea"/>
<rect x="760" y="158" width="8" height="18" fill="#fff4ea"/>
<rect x="768" y="158" width="8" height="18" fill="#fff4ea"/>
<rect x="776" y="158" width="8" height="18" fill="#fff4ea"/>
<rect x="784" y="158" width="8" height="18" fill="#fff4ea"/>
<rect x="792" y="158" width="8" height="18" fill="#fff4ea"/>
<rect x="800" y="158" width="8" height="18" fill="#fff4ea"/>
<rect x="808" y="158" width="8" height="18" fill="#fff4ea"/>
<rect x="816" y="158" width="8" height="18" fill="#fff4ea"/>
<rect x="824" y="158" width="8" height="18" fill="#fff4ea"/>
<rect x="832" y="158" width="8" height="18" fill="#fff4ea"/>
<rect x="840" y="158" width="8" height="18" fill="#fff4ea"/>
<rect x="848" y="158" width="8" height="18" fill="#fff4ea"/>
<rect x="856" y="158" width="8" height="18" fill="#fff4ea"/>
</svg>