<svg xmlns="http://www.w3.org/2000/svg" width="920" height="340" viewBox="0 0 920 340">
<rect width="100%" height="100%" fill="white"/>
<text x="58" y="20" font-family="sans-serif" font-size="14">E5 mean PIS_LPIPS by call</text>
<line x1="58" y1="296" x2="896" y2="296" stroke="#333"/>
<line x1="58" y1="28" x2="58" y2="296" stroke="#333"/>
<text x="460.0" y="332" text-anchor="middle" font-family="sans-serif" font-size="12">call index</text>
<text x="14" y="170.0" transform="rotate(-90 14 170.0)" text-anchor="middle" font-family="sans-serif" font-size="12">mean LPIPS</text>
<polyline points="58.00,28.00 66.64,229.42 75.28,171.99 83.92,273.61 92.56,233.20 101.20,290.86 109.84,273.89 118.47,294.86 127.11,290.98 135.75,295.89 144.39,289.98 153.03,295.62 161.67,289.14 170.31,295.38 178.95,292.98 187.59,295.77 196.23,294.75 204.87,295.95 213.51,295.24 222.14,295.99 230.78,295.55 239.42,296.00 248.06,295.64 256.70,296.00 265.34,295.65 273.98,296.00 282.62,295.63 291.26,296.00 299.90,295.66 308.54,296.00 317.18,295.75 325.81,296.00 334.45,295.80 343.09,296.00 351.73,295.83 360.37,296.00 369.01,295.88 377.65,296.00 386.29,295.92 394.93,296.00 403.57,295.94 412.21,296.00 420.85,295.94 429.48,296.00 438.12,295.78 446.76,296.00 455.40,295.94 464.04,296.00 472.68,295.96 481.32,296.00 489.96,295.96 498.60,296.00 507.24,295.97 515.88,296.00 524.52,295.97 533.15,296.00 541.79,295.97 550.43,296.00 559.07,295.97 567.71,296.00 576.35,295.98 584.99,296.00 593.63,295.98 602.27,296.00 610.91,295.97 619.55,296.00 628.19,295.97 636.82,296.00 645.46,295.97 654.10,296.00 662.74,295.97 671.38,296.00 680.02,295.96 688.66,296.00 697.30,295.96 705.94,296.00 714.58,295.95 723.22,296.00 731.86,295.94 740.49,296.00 749.13,295.93 757.77,296.00 766.41,295.91 775.05,296.00 783.69,295.88 792.33,296.00 800.97,295.84 809.61,296.00 818.25,295.78 826.89,295.99 835.53,295.70 844.16,295.99 852.80,295.56 861.44,295.98 870.08,295.10 878.72,295.91 887.36,294.46 896.00,294.26" fill="none" stroke="#1f77b4" stroke-width="2"/>
</svg>