<svg xmlns="http://www.w3.org/2000/svg" width="888" height="86" viewBox="0 0 888 86">
<rect width="100%" height="100%" fill="white"/>
<text x="72" y="20" font-family="sans-serif" font-size="14">E5 PIS_LPIPS heatmap</text>
<rect x="72" y="32" width="8" height="18" fill="#f1f1f1"/>
<rect x="80" y="32" width="8" height="18" fill="#ff3c14"/>
<rect x="88" y="32" width="8" height="18" fill="#f1f1f1"/>
<rect x="96" y="32" width="8" height="18" fill="#f1f1f1"/>
<rect x="104" y="32" width="8" height="18" fill="#f1f1f1"/>
<rect x="112" y="32" width="8" height="18" fill="#f1f1f1"/>
<rect x="120" y="32" width="8" height="18" fill="#f1f1f1"/>
<rect x="128" y="32" width="8" height="18" fill="#f1f1f1"/>
<rect x="136" y="32" width="8" height="18" fill="#f1f1f1"/>
<rect x="144" y="32" width="8" height="18" fill="#f1f1f1"/>
<rect x="152" y="32" width="8" height="18" fill="#f1f1f1"/>
<rect x="160" y="32" width="8" height="18" fill="#f1f1f1"/>
<rect x="168" y="32" width="8" height="18" fill="#f1f1f1"/>
<rect x="176" y="32" width="8" height="18" fill="#f1f1f1"/>
<rect x="184" y="32" width="8" height="18" fill="#f1f1f1"/>
<rect x="192" y="32" width="8" height="18" fill="#f1f1f1"/>
<rect x="200" y="32" width="8" height="18" fill="#f1f1f1"/>
<rect x="208" y="32" width="8" height="18" fill="#f1f1f1"/>
<rect x="216" y="32" width="8" height="18" fill="#f1f1f1"/>
<rect x="224" y="32" width="8" height="18" fill="#f1f1f1"/>
<rect x="232" y="32" width="8" height="18" fill="#f1f1f1"/>
<rect x="240" y="32" width="8" height="18" fill="#f1f1f1"/>
<rect x="248" y="32" width="8" height="18" fill="#f1f1f1"/>
<rect x="256" y="32" width="8" height="18" fill="#f1f1f1"/>
<rect x="264" y="32" width="8" height="18" fill="#f1f1f1"/>
<rect x="272" y="32" width="8" height="18" fill="#f1f1f1"/>
<rect x="280" y="32" width="8" height="18" fill="#f1f1f1"/>
<rect x="288" y="32" width="8" height="18" fill="#f1f1f1"/>
<rect x="296" y="32" width="8" height="18" fill="#f1f1f1"/>
<rect x="304" y="32" width="8" height="18" fill="#f1f1f1"/>
<rect x="312" y="32" width="8" height="18" fill="#f1f1f1"/>
<rect x="320" y="32" width="8" height="18" fill="#f1f1f1"/>
<rect x="328" y="32" width="8" height="18" fill="#f1f1f1"/>
<rect x="336" y="32" width="8" height="18" fill="#f1f1f1"/>
<rect x="344" y="32" width="8" height="18" fill="#f1f1f1"/>
<rect x="352" y="32" width="8" height="18" fill="#f1f1f1"/>
<rect x="360" y="32" width="8" height="18" fill="#f1f1f1"/>
<rect x="368" y="32" width="8" height="18" fill="#f1f1f1"/>
<rect x="376" y="32" width="8" height="18" fill="#f1f1f1"/>
<rect x="384" y="32" width="8" height="18" fill="#f1f1f1"/>
<rect x="392" y="32" width="8" height="18" fill="#f1f1f1"/>
<rect x="400" y="32" width="8" height="18" fill="#f1f1f1"/>
<rect x="408" y="32" width="8" height="18" fill="#f1f1f1"/>
<rect x="416" y="32" width="8" height="18" fill="#f1f1f1"/>
<rect x="424" y="32" width="8" height="18" fill="#f1f1f1"/>
<rect x="432" y="32" width="8" height="18" fill="#f1f1f1"/>
<rect x="440" y="32" width="8" height="18" fill="#f1f1f1"/>
<rect x="448" y="32" width="8" height="18" fill="#f1f1f1"/>
<rect x="456" y="32" width="8" height="18" fill="#f1f1f1"/>
<rect x="464" y="32" width="8" height="18" fill="#f1f1f1"/>
<rect x="472" y="32" width="8" height="18" fill="#f1f1f1"/>
<rect x="480" y="32" width="8" height="18" fill="#f1f1f1"/>
<rect x="488" y="32" width="8" height="18" fill="#f1f1f1"/>
<rect x="496" y="32" width="8" height="18" fill="#f1f1f1"/>
<rect x="504" y="32" width="8" height="18" fill="#f1f1f1"/>
<rect x="512" y="32" width="8" height="18" fill="#f1f1f1"/>
<rect x="520" y="32" width="8" height="18" fill="#f1f1f1"/>
<rect x="528" y="32" width="8" height="18" fill="#f1f1f1"/>
<rect x="536" y="32" width="8" height="18" fill="#f1f1f1"/>
<rect x="544" y="32" width="8" height="18" fill="#f1f1f1"/>
<rect x="552" y="32" width="8" height="18" fill="#f1f1f1"/>
<rect x="560" y="32" width="8" height="18" fill="#f1f1f1"/>
<rect x="568" y="32" width="8" height="18" fill="#f1f1f1"/>
<rect x="576" y="32" width="8" height="18" fill="#f1f1f1"/>
<rect x="584" y="32" width="8" height="18" fill="#f1f1f1"/>
<rect x="592" y="32" width="8" height="18" fill="#f1f1f1"/>
<rect x="600" y="32" width="8" height="18" fill="#f1f1f1"/>
<rect x="608" y="32" width="8" height="18" fill="#f1f1f1"/>
<rect x="616" y="32" width="8" height="18" fill="#f1f1f1"/>
<rect x="624" y="32" width="8" height="18" fill="#f1f1f1"/>
<rect x="632" y="32" width="8" height="18" fill="#f1f1f1"/>
<rect x="640" y="32" width="8" height="18" fill="#f1f1f1"/>
<rect x="648" y="32" width="8" height="18" fill="#f1f1f1"/>
<rect x="656" y="32" width="8" height="18" fill="#f1f1f1"/>
<rect x="664" y="32" width="8" height="18" fill="#f1f1f1"/>
<rect x="672" y="32" width="8" height="18" fill="#f1f1f1"/>
<rect x="680" y="32" width="8" height="18" fill="#f1f1f1"/>
<rect x="688" y="32" width="8" height="18" fill="#f1f1f1"/>
<rect x="696" y="32" width="8" height="18" fill="#f1f1f1"/>
<rect x="704" y="32" width="8" height="18" fill="#f1f1f1"/>
<rect x="712" y="32" width="8" height="18" fill="#f1f1f1"/>
<rect x="720" y="32" width="8" height="18" fill="#f1f1f1"/>
<rect x="728" y="32" width="8" height="18" fill="#f1f1f1"/>
<rect x="736" y="32" width="8" height="18" fill="#f1f1f1"/>
<rect x="744" y="32" width="8" height="18" fill="#f1f1f1"/>
<rect x="752" y="32" width="8" height="18" fill="#f1f1f1"/>
<rect x="760" y="32" width="8" height="18" fill="#f1f1f1"/>
<rect x="768" y="32" width="8" height="18" fill="#f1f1f1"/>
<rect x="776" y="32" width="8" height="18" fill="#f1f1f1"/>
<rect x="784" y="32" width="8" height="18" fill="#f1f1f1"/>
<rect x="792" y="32" width="8" height="18" fill="#f1f1f1"/>
<rect x="800" y="32" width="8" height="18" fill="#f1f1f1"/>
<rect x="808" y="32" width="8" height="18" fill="#f1f1f1"/>
<rect x="816" y="32" width="8" height="18" fill="#f1f1f1"/>
<rect x="824" y="32" width="8" height="18" fill="#f1f1f1"/>
<rect x="832" y="32" width="8" height="18" fill="#f1f1f1"/>
<rect x="840" y="32" width="8" height="18" fill="#f1f1f1"/>
<rect x="848" y="32" width="8" height="18" fill="#f1f1f1"/>
<rect x="856" y="32" width="8" height="18" fill="#f1f1f1"/>
</svg>