<svg xmlns="http://www.w3.org/2000/svg" width="920" height="340" viewBox="0 0 920 340">
<rect width="100%" height="100%" fill="white"/>
<text x="58" y="20" font-family="sans-serif" font-size="14">E5 mean PIS_LPIPS by call</text>
<line x1="58" y1="296" x2="896" y2="296" stroke="#333"/>
<line x1="58" y1="28" x2="58" y2="296" stroke="#333"/>
<text x="460.0" y="332" text-anchor="middle" font-family="sans-serif" font-size="12">call index</text>
<text x="14" y="170.0" transform="rotate(-90 14 170.0)" text-anchor="middle" font-family="sans-serif" font-size="12">mean LPIPS</text>
<polyline points="58.00,28.00 66.64,227.67 75.28,174.32 83.92,271.32 92.56,236.84 101.20,289.60 109.84,276.79 118.47,294.62 127.11,292.38 135.75,295.91 144.39,286.80 153.03,295.37 161.67,284.77 170.31,294.93 178.95,291.20 187.59,295.60 196.23,294.15 204.87,295.93 213.51,294.90 222.14,295.99 230.78,295.35 239.42,295.99 248.06,295.47 256.70,295.99 265.34,295.49 273.98,295.99 282.62,295.46 291.26,295.99 299.90,295.49 308.54,295.99 317.18,295.63 325.81,295.99 334.45,295.71 343.09,296.00 351.73,295.78 360.37,296.00 369.01,295.86 377.65,296.00 386.29,295.92 394.93,296.00 403.57,295.94 412.21,296.00 420.85,295.94 429.48,296.00 438.12,295.81 446.76,296.00 455.40,295.94 464.04,296.00 472.68,295.95 481.32,296.00 489.96,295.96 498.60,296.00 507.24,295.96 515.88,296.00 524.52,295.97 533.15,296.00 541.79,295.97 550.43,296.00 559.07,295.98 567.71,296.00 576.35,295.98 584.99,296.00 593.63,295.98 602.27,296.00 610.91,295.98 619.55,296.00 628.19,295.98 636.82,296.00 645.46,295.98 654.10,296.00 662.74,295.97 671.38,296.00 680.02,295.97 688.66,296.00 697.30,295.97 705.94,296.00 714.58,295.96 723.22,296.00 731.86,295.95 740.49,296.00 749.13,295.94 757.77,296.00 766.41,295.93 775.05,296.00 783.69,295.91 792.33,296.00 800.97,295.87 809.61,296.00 818.25,295.81 826.89,295.99 835.53,295.74 844.16,295.99 852.80,295.60 861.44,295.98 870.08,295.04 878.72,295.90 887.36,294.35 896.00,294.00" fill="none" stroke="#1f77b4" stroke-width="2"/>
</svg>