<svg xmlns="http://www.w3.org/2000/svg" width="960" height="520" viewBox="0 0 960 520">
<rect width="100%" height="100%" fill="white"/>
<text x="480.0" y="24" text-anchor="middle" font-family="Arial" font-size="18" font-weight="700">E3 threshold vs achieved RR</text>
<line x1="78" y1="450" x2="740" y2="450" stroke="#111827" stroke-width="1"/>
<line x1="78" y1="46" x2="78" y2="450" stroke="#111827" stroke-width="1"/>
<line x1="78" y1="450.0" x2="740" y2="450.0" stroke="#e5e7eb"/>
<text x="70" y="454.0" text-anchor="end" font-family="Arial" font-size="11" fill="#374151">0</text>
<line x1="78" y1="369.2" x2="740" y2="369.2" stroke="#e5e7eb"/>
<text x="70" y="373.2" text-anchor="end" font-family="Arial" font-size="11" fill="#374151">0.2</text>
<line x1="78" y1="288.4" x2="740" y2="288.4" stroke="#e5e7eb"/>
<text x="70" y="292.4" text-anchor="end" font-family="Arial" font-size="11" fill="#374151">0.4</text>
<line x1="78" y1="207.6" x2="740" y2="207.6" stroke="#e5e7eb"/>
<text x="70" y="211.6" text-anchor="end" font-family="Arial" font-size="11" fill="#374151">0.6</text>
<line x1="78" y1="126.8" x2="740" y2="126.8" stroke="#e5e7eb"/>
<text x="70" y="130.8" text-anchor="end" font-family="Arial" font-size="11" fill="#374151">0.8</text>
<line x1="78" y1="46.0" x2="740" y2="46.0" stroke="#e5e7eb"/>
<text x="70" y="50.0" text-anchor="end" font-family="Arial" font-size="11" fill="#374151">1</text>
<line x1="78.0" y1="450" x2="78.0" y2="455" stroke="#111827"/>
<text x="78.0" y="472" text-anchor="middle" font-family="Arial" font-size="11" fill="#374151">1e-12</text>
<line x1="210.4" y1="450" x2="210.4" y2="455" stroke="#111827"/>
<text x="210.4" y="472" text-anchor="middle" font-family="Arial" font-size="11" fill="#374151">1.32e-09</text>
<line x1="342.8" y1="450" x2="342.8" y2="455" stroke="#111827"/>
<text x="342.8" y="472" text-anchor="middle" font-family="Arial" font-size="11" fill="#374151">1.74e-06</text>
<line x1="475.2" y1="450" x2="475.2" y2="455" stroke="#111827"/>
<text x="475.2" y="472" text-anchor="middle" font-family="Arial" font-size="11" fill="#374151">0.00229</text>
<line x1="607.6" y1="450" x2="607.6" y2="455" stroke="#111827"/>
<text x="607.6" y="472" text-anchor="middle" font-family="Arial" font-size="11" fill="#374151">3.03</text>
<line x1="740.0" y1="450" x2="740.0" y2="455" stroke="#111827"/>
<text x="740.0" y="472" text-anchor="middle" font-family="Arial" font-size="11" fill="#374151">3.99e+03</text>
<polyline fill="none" stroke="#2563eb" stroke-width="1.8" points="78.0,46.0 446.1,46.0 449.0,46.0 452.0,46.0 454.9,46.0 457.9,46.0 460.8,46.0 463.8,46.0 466.7,46.0 469.7,46.0 472.6,46.0 475.6,47.7 478.5,50.2 481.4,53.0 484.4,57.0 487.3,62.7 490.3,67.3 493.2,73.0 496.2,83.0 499.1,96.0 502.1,115.5 505.0,133.7 508.0,151.3 510.9,169.2 513.9,183.0 516.8,193.9 519.8,202.5 522.7,210.5 525.7,215.9 528.6,221.0 531.6,224.9 534.5,227.1 537.5,229.1 540.4,230.8 543.4,231.8 546.3,232.8 549.3,233.2 552.2,233.7 555.2,233.7 558.1,233.7 561.0,233.7 564.0,233.7 566.9,233.7 569.9,233.7 572.8,233.7 575.8,233.7 578.7,233.7 581.7,233.7 584.6,233.7 587.6,233.7 590.5,233.7 593.5,233.7 596.4,233.7 598.3,248.0 599.4,257.8 602.3,284.6 602.7,288.4 605.3,305.0 608.2,315.5 610.2,328.9 611.2,336.0 614.1,345.2 617.1,353.2 620.0,361.4 623.0,371.6 625.9,378.6 628.9,384.3 631.8,391.1 634.8,395.4 637.7,400.1 640.6,404.3 643.6,407.3 646.5,409.2 649.5,413.1 652.4,413.7 655.4,417.4 658.3,417.4 661.3,419.5 664.2,421.4 667.2,421.4 670.1,421.4 673.1,421.8 676.0,425.5"/>
<rect x="768" y="56" width="12" height="12" fill="#2563eb"/>
<text x="786" y="66" font-family="Arial" font-size="12" fill="#111827">raw_oracle</text>
<polyline fill="none" stroke="#dc2626" stroke-width="1.8" points="78.0,46.0 442.8,46.0 445.9,46.0 449.0,46.0 452.1,46.0 455.2,46.0 458.3,46.0 461.5,46.0 464.6,46.0 467.7,46.0 470.8,47.1 473.9,49.4 477.0,50.7 480.2,56.1 483.3,61.4 486.4,66.4 489.5,72.1 492.6,82.9 495.8,98.2 498.9,117.0 502.0,135.4 505.1,155.0 508.2,169.7 511.3,182.7 514.5,192.4 517.6,201.5 520.7,209.1 523.8,215.5 526.9,220.7 530.0,224.4 533.2,226.8 536.3,229.3 539.4,230.9 542.5,232.1 545.6,233.2 548.7,233.7 551.9,233.7 555.0,233.7 558.1,233.7 561.2,233.7 564.3,233.7 567.5,233.7 570.6,233.7 573.7,233.7 576.8,233.7 579.9,233.7 583.0,233.7 586.2,233.7 589.3,233.7 592.4,233.7 595.5,233.7 598.6,235.6 601.4,248.0 601.7,250.0 604.9,273.1 607.1,288.4 608.0,294.3 611.1,302.2 614.2,310.9 617.3,322.7 618.9,328.9 620.4,336.0 623.6,344.0 626.7,353.6 629.8,362.9 632.9,370.8 636.0,378.1 639.1,385.5 642.3,392.2 645.4,396.7 648.5,401.0 651.6,403.2 654.7,409.2 657.9,409.2 661.0,413.3 664.1,414.0 667.2,417.4 670.3,417.4 673.4,421.4 676.6,421.4 679.7,421.4 682.8,421.4 685.9,425.5"/>
<rect x="768" y="76" width="12" height="12" fill="#dc2626"/>
<text x="786" y="86" font-family="Arial" font-size="12" fill="#111827">sea_oracle</text>
<polyline fill="none" stroke="#16a34a" stroke-width="1.8" points="78.0,46.5 415.8,46.5 420.0,46.5 424.1,46.5 428.3,46.5 432.4,46.5 436.6,46.5 440.8,46.5 444.9,47.5 449.1,47.5 453.2,47.5 457.4,50.3 461.5,50.3 465.7,52.6 469.8,56.3 474.0,58.2 478.2,64.7 482.3,70.0 486.5,76.1 490.6,84.6 494.8,92.8 498.9,100.3 503.1,110.9 507.3,121.4 511.4,132.1 515.6,141.5 519.7,148.1 523.9,154.5 528.0,161.8 532.2,168.7 536.3,174.9 540.5,179.4 544.7,185.5 548.8,190.0 553.0,194.1 557.1,198.5 561.3,202.2 565.4,205.7 569.6,210.1 573.8,214.2 577.9,218.8 582.1,224.4 586.2,231.5 590.4,240.2 593.4,248.0 594.5,250.0 598.7,260.0 602.8,269.3 607.0,280.1 610.4,288.4 611.2,291.2 615.3,300.3 619.5,309.5 623.6,321.6 627.0,328.9 627.8,331.1 631.9,340.6 636.1,347.2 640.3,356.0 644.4,362.4 648.6,370.0 652.7,375.4 656.9,382.4 661.0,386.6 665.2,392.5 669.3,396.3 673.5,400.6 677.7,404.1 681.8,407.5 686.0,410.7 690.1,413.0 694.3,416.1 698.4,418.1 702.6,419.5 706.8,421.3 710.9,422.5 715.1,423.6 719.2,424.2 723.4,424.5 727.5,425.3 731.7,425.5 735.8,425.5 740.0,425.5"/>
<rect x="768" y="96" width="12" height="12" fill="#16a34a"/>
<text x="786" y="106" font-family="Arial" font-size="12" fill="#111827">dino_oracle</text>
<polyline fill="none" stroke="#9333ea" stroke-width="1.8" points="78.0,46.0 415.4,46.0 419.3,46.0 423.3,46.0 427.2,46.0 431.2,46.0 435.2,46.0 439.1,46.0 443.1,46.0 447.1,46.0 451.0,46.0 455.0,46.0 459.0,46.5 462.9,47.7 466.9,49.4 470.9,50.8 474.8,52.1 478.8,55.8 482.8,60.4 486.7,64.6 490.7,68.2 494.6,73.7 498.6,78.9 502.6,87.1 506.5,97.9 510.5,109.6 514.5,123.7 518.4,136.0 522.4,145.7 526.4,153.6 530.3,160.4 534.3,165.6 538.3,170.8 542.2,178.6 546.2,184.6 550.2,189.2 554.1,194.1 558.1,200.2 562.0,205.2 566.0,209.7 570.0,214.2 573.9,219.2 577.9,222.5 581.9,226.6 585.8,231.8 589.8,238.3 593.8,245.4 594.7,248.0 597.7,254.4 601.7,264.5 605.7,275.7 609.6,287.0 610.2,288.4 613.6,296.6 617.6,305.5 621.5,316.0 625.5,324.8 627.2,328.9 629.5,333.2 633.4,341.0 637.4,348.5 641.3,355.6 645.3,362.6 649.3,368.8 653.2,375.3 657.2,380.6 661.2,386.1 665.1,391.1 669.1,396.8 673.1,400.9 677.0,404.5 681.0,408.6 685.0,411.4 688.9,414.0 692.9,416.1 696.9,418.6 700.8,419.3 704.8,421.4 708.7,422.2 712.7,423.1 716.7,425.3 720.6,425.5 724.6,425.5"/>
<rect x="768" y="116" width="12" height="12" fill="#9333ea"/>
<text x="786" y="126" font-family="Arial" font-size="12" fill="#111827">lpips_oracle</text>
<polyline fill="none" stroke="#ea580c" stroke-width="1.8" points="78.0,46.0 433.1,46.0 436.8,46.0 440.5,46.0 444.2,46.0 448.0,46.0 451.7,46.0 455.4,46.0 459.1,46.0 462.8,46.0 466.5,46.1 470.2,47.7 474.0,49.3 477.7,52.6 481.4,56.8 485.1,60.8 488.8,65.4 492.5,71.5 496.2,78.0 500.0,87.3 503.7,95.6 507.4,109.3 511.1,124.9 514.8,136.3 518.5,146.4 522.2,154.5 525.9,162.3 529.7,168.6 533.4,173.9 537.1,179.9 540.8,185.4 544.5,191.4 548.2,196.2 551.9,199.7 555.7,203.2 559.4,208.0 563.1,211.4 566.8,214.0 570.5,217.0 574.2,220.2 577.9,222.5 581.7,224.9 585.4,225.7 589.1,227.2 592.8,230.4 596.5,237.9 599.7,248.0 600.2,250.6 603.9,264.2 607.7,275.9 611.4,286.9 611.9,288.4 615.1,297.5 618.8,308.3 622.5,319.8 626.2,328.5 626.5,328.9 629.9,337.4 633.7,346.1 637.4,354.0 641.1,361.4 644.8,368.0 648.5,374.2 652.2,380.1 655.9,385.6 659.6,389.8 663.4,395.7 667.1,399.5 670.8,404.1 674.5,406.8 678.2,410.5 681.9,412.9 685.6,415.8 689.4,417.4 693.1,419.4 696.8,420.3 700.5,421.8 704.2,422.8 707.9,423.9 711.6,424.5 715.4,425.4 719.1,425.5 722.8,425.5"/>
<rect x="768" y="136" width="12" height="12" fill="#ea580c"/>
<text x="786" y="146" font-family="Arial" font-size="12" fill="#111827">pma_nogate_oracle</text>
<polyline fill="none" stroke="#0891b2" stroke-width="1.8" points="78.0,46.0 427.7,46.0 431.4,46.0 435.0,46.0 438.7,46.0 442.4,46.0 446.0,46.0 449.7,46.0 453.3,46.0 457.0,46.0 460.7,46.0 464.3,46.0 468.0,47.3 471.7,48.7 475.3,51.7 479.0,55.6 482.6,59.9 486.3,65.8 490.0,73.9 493.6,85.0 497.3,96.9 500.9,111.2 504.6,127.9 508.3,147.6 511.9,164.5 515.6,175.9 519.3,186.3 522.9,195.8 526.6,203.2 530.2,210.3 533.9,214.1 537.6,217.9 541.2,220.6 544.9,223.8 548.5,225.8 552.2,227.7 555.9,229.1 559.5,230.3 563.2,231.3 566.9,232.2 570.5,232.7 574.2,233.0 577.8,233.1 581.5,233.2 585.2,234.0 588.8,234.2 592.5,237.7 596.2,245.1 596.9,248.0 599.8,259.5 603.5,270.4 607.1,281.0 610.1,288.4 610.8,290.0 614.5,302.7 618.1,318.3 621.0,328.9 621.8,331.0 625.4,341.6 629.1,353.3 632.8,362.5 636.4,371.8 640.1,380.1 643.8,387.9 647.4,394.5 651.1,398.0 654.7,403.3 658.4,407.5 662.1,410.0 665.7,413.7 669.4,415.7 673.1,417.1 676.7,418.5 680.4,420.5 684.0,421.4 687.7,422.5 691.4,423.5 695.0,424.8 698.7,425.1 702.3,425.3 706.0,425.5 709.7,425.5 713.3,425.5"/>
<rect x="768" y="156" width="12" height="12" fill="#0891b2"/>
<text x="786" y="166" font-family="Arial" font-size="12" fill="#111827">pma_stageaware_oracle</text>
<text x="409.0" y="498" text-anchor="middle" font-family="Arial" font-size="13">threshold delta</text>
<text transform="translate(20 248.0) rotate(-90)" text-anchor="middle" font-family="Arial" font-size="13">calibration RR</text>
</svg>